<?xml version="1.0" encoding="UTF-8" standalone="no"?>
<!-- Created with Inkscape (http://www.inkscape.org/) -->

<svg
   width="210mm"
   height="297mm"
   viewBox="0 0 210 297"
   version="1.1"
   id="svg1"
   xmlns="http://www.w3.org/2000/svg"
   xmlns:svg="http://www.w3.org/2000/svg">
  <defs
     id="defs1" />
  <g
     id="layer1">
    <path
       style="font-size:70.5556px;line-height:0;font-family:'Neon 80s';-inkscape-font-specification:'Neon 80s';text-align:center;letter-spacing:1.1086px;text-anchor:middle;fill:#ffffff;stroke:#000000;stroke-linecap:round"
       d="m -99.4318,58.579602 -5.71886,11.782234 q -0.24116,0.516765 -0.68902,0.999079 -1.03353,0.999078 -2.44602,0.999078 -1.44694,0 -2.44602,-0.999078 -0.99908,-1.03353 -0.99908,-2.44602 0,-0.999078 0.51677,-1.791451 l 20.429426,-42.099095 q 0.241157,-0.551215 0.72347,-1.033529 0.999079,-1.03353 2.44602,-1.03353 1.41249,0 2.446019,1.03353 0.413412,0.413412 0.654569,0.895725 l 20.42943,42.099095 q 0.585667,0.826824 0.585667,1.929255 0,1.41249 -1.03353,2.44602 -0.999078,0.999078 -2.411568,0.999078 -1.446941,0 -2.44602,-0.999078 -0.447862,-0.482314 -0.689019,-0.999079 h -0.03445 L -75.83288,58.579602 Z m 20.257176,-6.890196 -8.44049,-17.397744 -8.474941,17.397744 z m 26.946834,4.203019 q 0.206706,3.789608 2.962784,6.511235 2.997235,2.997235 7.234706,2.997235 4.23747,0 7.200254,-2.962784 2.997235,-2.997235 2.997235,-7.234705 0,-4.23747 -2.997235,-7.234705 -2.962784,-2.997236 -7.200254,-2.997236 -4.237471,0 -7.234706,2.997236 -2.549372,2.549372 -2.928333,5.99447 v 1.309137 q 0,0.310059 -0.03445,0.620117 z m -6.993548,-24.735802 q 0,-1.446941 1.033529,-2.48047 1.033529,-1.03353 2.48047,-1.03353 1.446942,0 2.480471,1.03353 1.033529,1.033529 1.033529,2.48047 v 10.128588 q 4.409725,-3.307294 10.163039,-3.307294 7.131352,0 12.161195,5.029843 5.029843,5.029842 5.029843,12.161195 0,7.131352 -5.029843,12.161195 -5.029843,5.029843 -12.161195,5.029843 -7.131353,0 -12.161195,-5.029843 -4.960941,-4.960941 -5.029843,-11.98894 z m 59.70971453,6.821294 q 7.13135247,0 12.16119547,5.029843 5.029843,5.029842 5.029843,12.161195 0,7.131352 -5.029843,12.161195 -5.029843,5.029843 -12.16119547,5.029843 -7.13135243,0 -12.16119553,-5.029843 -5.029843,-5.029843 -5.029843,-12.161195 0,-7.131353 5.029843,-12.161195 5.0298431,-5.029843 12.16119553,-5.029843 z m 0,6.959097 q -4.23747033,0 -7.23470543,2.997236 -2.9972351,2.962784 -2.9972351,7.200254 0,4.23747 2.9972351,7.234705 2.9972351,2.997235 7.23470543,2.997235 4.23747027,0 7.20025437,-2.997235 2.9972351,-2.997235 2.9972351,-7.234705 0,-4.23747 -2.9972351,-7.200254 Q 4.7258468,44.937014 0.48837653,44.937014 Z M 42.800347,72.359993 Q 35.531191,71.946581 30.845858,67.261248 25.884917,62.300307 25.816015,55.272308 V 41.97423 q 0,-1.998156 1.03353,-3.031686 1.033529,-1.033529 2.48047,-1.033529 1.446941,0 2.48047,1.033529 1.03353,1.03353 1.03353,2.962784 v 13.298078 q 0,0.310059 -0.03445,0.620118 0.206706,3.789607 2.962784,6.511234 2.997235,2.997235 7.234705,2.997235 h 0.137804 q 4.23747,0 7.234706,-2.997235 2.756078,-2.721627 2.962784,-6.511234 -0.03445,-0.310059 -0.03445,-0.620118 V 41.905328 q 0,-1.929254 1.033529,-2.962784 1.033529,-1.033529 2.48047,-1.033529 1.446942,0 2.480471,1.033529 1.033529,1.03353 1.033529,3.031686 v 13.298078 q -0.0689,7.027999 -5.029843,11.98894 -4.685333,4.685333 -11.954489,5.098745 z m 32.424541,-34.51988 v -6.545686 q 0,-1.446941 1.033529,-2.48047 1.033529,-1.03353 2.48047,-1.03353 1.446941,0 2.480471,1.03353 1.033529,1.033529 1.033529,2.48047 v 6.545686 h 3.824059 q 1.446941,0 2.48047,1.033529 1.033529,1.03353 1.033529,2.480471 0,1.446941 -1.033529,2.48047 -1.033529,1.03353 -2.48047,1.03353 h -3.824059 v 23.97788 q 0,1.446941 -1.033529,2.480471 -1.03353,1.033529 -2.480471,1.033529 -1.446941,0 -2.48047,-1.033529 -1.033529,-1.03353 -1.033529,-2.480471 v -23.97788 h -3.961863 q -1.446941,0 -2.48047,-1.03353 -1.03353,-1.033529 -1.03353,-2.48047 0,-1.446941 1.03353,-2.480471 1.033529,-1.033529 2.48047,-1.033529 z m 74.495352,34.51988 q -1.44694,0 -2.48047,-1.033529 -1.03353,-1.03353 -1.03353,-2.962784 V 55.065602 q 0,-0.310059 0.0344,-0.620118 -0.2067,-3.789607 -2.96278,-6.511234 -2.99724,-2.997236 -7.23471,-2.997236 h -0.1378 q -4.23747,0 -7.23471,2.997236 -2.75607,2.721627 -2.96278,6.511234 0.0345,0.310059 0.0345,0.620118 V 68.36368 q 0,1.929254 -1.03353,2.962784 -1.03353,1.033529 -2.48047,1.033529 -1.44694,0 -2.48047,-1.033529 -1.03353,-1.03353 -1.03353,-3.031686 V 54.9967 q 0.0689,-7.027999 5.02984,-11.98894 4.68534,-4.685333 11.95449,-5.098745 h 0.55122 q 7.26916,0.413412 11.95449,5.098745 0.86127,0.861274 1.55029,1.757 0.68902,-0.895726 1.5503,-1.757 4.68533,-4.685333 11.95449,-5.098745 h 0.55121 q 7.26916,0.413412 11.95449,5.098745 4.96094,4.960941 5.02984,11.98894 v 13.298078 q 0,1.998156 -1.03353,3.031686 -1.03353,1.033529 -2.48047,1.033529 -1.44694,0 -2.48047,-1.033529 -1.03353,-1.03353 -1.03353,-2.962784 V 55.065602 q 0,-0.310059 0.0345,-0.620118 -0.20671,-3.789607 -2.96279,-6.511234 -2.99723,-2.997236 -7.2347,-2.997236 h -0.13781 q -4.23747,0 -7.2347,2.997236 -2.75608,2.721627 -2.96279,6.511234 0.0345,0.310059 0.0345,0.620118 V 68.36368 q 0,1.929254 -1.03353,2.962784 -1.03353,1.033529 -2.48047,1.033529 z m 60.46762,-26.561704 q -1.8948,-0.861275 -4.16857,-0.861275 -4.23747,0 -7.2347,2.997236 -2.99724,2.962784 -2.99724,7.200254 0,4.23747 2.99724,7.234705 2.99723,2.997235 7.2347,2.997235 4.20302,0 7.20026,-2.962784 0.0344,-0.03445 0.0689,-0.0689 0.99908,-0.999078 2.44602,-0.999078 1.44694,0 2.48047,1.033529 1.03353,0.999079 1.03353,2.44602 0,1.446941 -1.03353,2.48047 -0.0345,0.03445 -0.0689,0.0689 -4.9954,4.995392 -12.12675,4.995392 -7.13135,0 -12.16119,-5.029843 -5.02985,-5.029843 -5.02985,-12.161195 0,-7.131353 5.02985,-12.161195 5.02984,-5.029843 12.16119,-5.029843 7.13135,0 12.12675,4.995392 l -0.0345,0.03445 q 0,0.03445 0.0345,0.03445 0.99907,0.999078 0.99907,2.446019 0,1.41249 -0.99907,2.411569 l -9.85298,9.784077 q -1.03353,0.999079 -2.48048,0.999079 -1.48139,0 -2.51492,-0.999079 -0.99907,-1.033529 -0.99907,-2.514921 0,-1.446941 0.99907,-2.48047 z"
       id="text1"
       aria-label="About me" />
    <path
       d="m -61.797872,101.03375 -0.03445,0.0345 q -4.58198,-3.582902 -10.645352,-3.582902 -7.338058,0 -12.505705,5.202102 -5.167647,5.16764 -5.167647,12.47125 0,7.30361 5.167647,12.5057 5.167647,5.16765 12.505705,5.16765 6.063372,0 10.645352,-3.5829 l 0.03445,0.0344 q 0.03445,-0.0344 0.0689,-0.0689 1.03353,-1.03353 2.480471,-1.03353 1.446941,0 2.48047,1.03353 1.033529,1.03353 1.033529,2.48047 0,1.44694 -1.033529,2.48047 -0.03445,0.0344 -0.0689,0.0689 l 0.03445,0.0344 q -6.68349,5.58106 -15.675195,5.58106 -10.23194,0 -17.466646,-7.2347 -7.234705,-7.23471 -7.234705,-17.46665 0,-10.23194 7.234705,-17.466647 7.234706,-7.234705 17.466646,-7.234705 8.991705,0 15.675195,5.581059 l -0.03445,0.03445 q 0.03445,0.03445 0.0689,0.0689 1.033529,1.03353 1.033529,2.480471 0,1.446942 -1.033529,2.480472 -1.033529,1.03353 -2.48047,1.03353 -1.446941,0 -2.480471,-1.03353 -0.03445,-0.0344 -0.0689,-0.0689 z m 28.876092,4.44417 q 7.131352,0 12.161195,5.02985 5.029843,5.02984 5.029843,12.16119 0,7.13136 -5.029843,12.1612 -5.029843,5.02984 -12.161195,5.02984 -7.131353,0 -12.161195,-5.02984 -5.029843,-5.02984 -5.029843,-12.1612 0,-7.13135 5.029843,-12.16119 5.029842,-5.02985 12.161195,-5.02985 z m 0,6.9591 q -4.237471,0 -7.234706,2.99724 -2.997235,2.96278 -2.997235,7.20025 0,4.23747 2.997235,7.23471 2.997235,2.99723 7.234706,2.99723 4.23747,0 7.200254,-2.99723 2.997235,-2.99724 2.997235,-7.23471 0,-4.23747 -2.997235,-7.20025 -2.962784,-2.99724 -7.200254,-2.99724 z m 42.8631863,-7.028 q 7.2691567,0.41341 11.9544897,5.09875 4.960941,4.96094 5.029842,11.98894 v 13.29808 q 0,1.99815 -1.033529,3.03168 -1.033529,1.03353 -2.48047,1.03353 -1.446941,0 -2.480471,-1.03353 -1.033529,-1.03353 -1.033529,-2.96278 v -13.29808 q 0,-0.31006 0.03445,-0.62012 -0.206706,-3.78961 -2.962784,-6.51123 -2.997235,-2.99724 -7.2347056,-2.99724 H 9.5968965 q -4.2374703,0 -7.2347054,2.99724 -2.7560782,2.72162 -2.96278407,6.51123 0.034451,0.31006 0.034451,0.62012 v 13.29808 q 0,1.92925 -1.03352933,2.96278 -1.0335294,1.03353 -2.4804705,1.03353 -1.446941,0 -2.4804704,-1.03353 -1.0335293,-1.03353 -1.0335293,-3.03168 v -13.29808 q 0.068902,-7.028 5.0298428,-11.98894 4.685333,-4.68534 11.9544894,-5.09875 z m 27.2568997,-0.0689 v -6.545685 q 0,-1.446941 1.03353,-2.480471 1.033529,-1.033529 2.48047,-1.033529 1.446941,0 2.48047,1.033529 1.03353,1.03353 1.03353,2.480471 v 6.545685 h 3.824058 q 1.446941,0 2.480471,1.03353 1.033529,1.03353 1.033529,2.48047 0,1.44694 -1.033529,2.48047 -1.03353,1.03353 -2.480471,1.03353 H 44.226306 V 136.346 q 0,1.44694 -1.03353,2.48047 -1.033529,1.03353 -2.48047,1.03353 -1.446941,0 -2.48047,-1.03353 -1.03353,-1.03353 -1.03353,-2.48047 v -23.97788 h -3.961862 q -1.446941,0 -2.480471,-1.03353 -1.033529,-1.03353 -1.033529,-2.48047 0,-1.44694 1.033529,-2.48047 1.03353,-1.03353 2.480471,-1.03353 z m 41.243983,10.09414 q -2.997235,-2.99724 -7.234705,-2.99724 -4.237471,0 -7.234706,2.99724 -2.962784,2.96278 -2.962784,7.20025 0,4.23747 2.962784,7.23471 2.997235,2.99723 7.234706,2.99723 4.23747,0 7.234705,-2.99723 2.549373,-2.54938 2.928333,-5.99447 v -1.30914 q 0,-0.31006 0.03445,-0.62012 -0.206706,-3.78961 -2.962783,-6.51123 z m 9.956333,21.04954 q 0,1.99816 -1.03353,2.68718 -1.033529,0.68902 -2.48047,0.68902 -1.446941,0 -2.48047,-0.68902 -1.03353,-0.68902 -1.03353,-2.61827 -4.409725,3.30729 -10.163038,3.30729 -7.131353,0 -12.161195,-5.02984 -5.029843,-5.02984 -5.029843,-12.1612 0,-7.13135 5.029843,-12.16119 5.029842,-5.02985 12.161195,-5.02985 7.131352,0 12.161195,5.02985 4.960941,4.96094 5.029843,11.98894 z m 37.419928,-25.97603 q 0,0.0345 0.0344,0.0345 0.99908,0.99908 0.99908,2.44602 0,1.41249 -1.03353,2.44602 -0.99907,0.99908 -2.41156,0.99908 -1.44695,0 -2.44602,-1.03353 h -0.0345 q -2.96278,-2.96279 -7.20025,-2.96279 -4.23747,0 -7.2347,2.99724 -2.99724,2.96278 -2.99724,7.20025 0,4.23747 2.99724,7.23471 2.99723,2.99723 7.2347,2.99723 4.20302,0 7.20025,-2.96278 0.0345,-0.0344 0.0689,-0.0689 0.99908,-0.99908 2.44602,-0.99908 1.44694,0 2.48047,1.03353 1.03353,0.99908 1.03353,2.44602 0,1.44694 -1.03353,2.48047 -0.0344,0.0344 -0.0689,0.0689 -4.99539,4.99539 -12.12674,4.99539 -7.13135,0 -12.16119,-5.02984 -5.029847,-5.02984 -5.029847,-12.1612 0,-7.13135 5.029847,-12.16119 5.02984,-5.02985 12.16119,-5.02985 7.13135,0 12.12674,4.9954 z m 14.78566,-5.16765 v -6.545685 q 0,-1.446941 1.03352,-2.480471 1.03353,-1.033529 2.48048,-1.033529 1.44694,0 2.48047,1.033529 1.03352,1.03353 1.03352,2.480471 v 6.545685 h 3.82406 q 1.44694,0 2.48047,1.03353 1.03353,1.03353 1.03353,2.48047 0,1.44694 -1.03353,2.48047 -1.03353,1.03353 -2.48047,1.03353 H 147.6322 V 136.346 q 0,1.44694 -1.03352,2.48047 -1.03353,1.03353 -2.48047,1.03353 -1.44695,0 -2.48048,-1.03353 -1.03352,-1.03353 -1.03352,-2.48047 v -23.97788 h -3.96187 q -1.44694,0 -2.48047,-1.03353 -1.03353,-1.03353 -1.03353,-2.48047 0,-1.44694 1.03353,-2.48047 1.03353,-1.03353 2.48047,-1.03353 z"
       id="text2"
       style="font-size:70.5556px;line-height:0;font-family:'Neon 80s';-inkscape-font-specification:'Neon 80s';text-align:center;letter-spacing:1.1086px;text-anchor:middle;fill:#ffffff;stroke:#000000;stroke-linecap:round"
       aria-label="Contact" />
  </g>
</svg>
