<?xml version="1.0" encoding="UTF-8" standalone="no"?>
<svg
   version="1.1"
   id="svg1"
   width="740"
   height="740"
   viewBox="0 0 740 740"
   xmlns="http://www.w3.org/2000/svg"
   xmlns:svg="http://www.w3.org/2000/svg">
  <defs
     id="defs1" />
  <g
     id="g1">
    <g
       id="g47"
       transform="matrix(0.91937343,0,0,0.85172045,41.119567,-358.68812)"
       style="display:none;stroke:#bdc8d6;stroke-opacity:1">
      <path
         style="fill:none;fill-opacity:0.963572;stroke:#bdc8d6;stroke-width:2.28;stroke-linecap:round;stroke-linejoin:round;stroke-dasharray:none;stroke-opacity:1"
         d="m 136.60249,974.9845 c 0,0 45.90191,-20.74204 59.16591,-23.69963 24.44232,-5.4501 34.11105,-4.66657 46.16958,-5.08252 6.82424,-0.23539 15.67054,2.31088 15.67054,2.31088"
         id="path22" />
      <path
         style="fill:none;fill-opacity:0.963572;stroke:#bdc8d6;stroke-width:2.28;stroke-linecap:round;stroke-linejoin:round;stroke-dasharray:none;stroke-opacity:1"
         d="m 271.6112,951.86038 c 0,0 18.24806,2.21224 31.13955,6.51232 16.11449,5.37515 27.04336,10.28469 46.55411,15.73193"
         id="path23" />
      <path
         style="fill:none;fill-opacity:0.963572;stroke:#bdc8d6;stroke-width:2.28;stroke-linecap:round;stroke-linejoin:round;stroke-dasharray:none;stroke-opacity:1"
         d="m 370.83709,981.4525 c 0,0 32.02008,6.68333 45.60788,6.91349 18.34174,0.31068 26.62027,-0.85428 47.80365,-5.65868"
         id="path24" />
      <path
         style="fill:none;fill-opacity:0.963572;stroke:#bdc8d6;stroke-width:2.28;stroke-linecap:round;stroke-linejoin:round;stroke-dasharray:none;stroke-opacity:1"
         d="m 477.44403,978.36099 c 5.66611,-3.04441 10.51645,-6.55949 13.54634,-9.85073"
         id="path25" />
      <path
         style="fill:none;fill-opacity:0.963572;stroke:#bdc8d6;stroke-width:2.28;stroke-linecap:round;stroke-linejoin:round;stroke-dasharray:none;stroke-opacity:1"
         d="m 508.20567,954.23176 c 0.30786,-4.4046 18.20292,-15.40954 17.08785,-56.03767"
         id="path26" />
      <path
         style="fill:none;fill-opacity:0.963572;stroke:#bdc8d6;stroke-width:2.28;stroke-linecap:round;stroke-linejoin:round;stroke-dasharray:none;stroke-opacity:1"
         d="m 524.18331,886.2032 c -4.1888,-17.52042 -15.8587,-30.75637 -36.76837,-44.83998"
         id="path27" />
      <path
         style="fill:none;fill-opacity:0.963572;stroke:#bdc8d6;stroke-width:2.28;stroke-linecap:round;stroke-linejoin:round;stroke-dasharray:none;stroke-opacity:1"
         d="m 471.08218,830.6933 c -18.60342,-15.65488 -71.56161,-13.30585 -85.9419,19.75976"
         id="path28" />
      <path
         style="fill:none;fill-opacity:0.963572;stroke:#bdc8d6;stroke-width:2.28;stroke-linecap:round;stroke-linejoin:round;stroke-dasharray:none;stroke-opacity:1"
         d="m 355.61842,970.52576 c 26.92534,2.43222 95.54688,4.7877 106.87493,-50.81343 11.32804,-55.60114 -16.51911,-77.83524 -38.79925,-78.38767 -22.28013,-0.55242 -37.8018,14.48039 -37.8018,14.48039"
         id="path29" />
      <path
         style="fill:none;fill-opacity:0.963572;stroke:#bdc8d6;stroke-width:2.28;stroke-linecap:round;stroke-linejoin:round;stroke-dasharray:none;stroke-opacity:1"
         d="m 375.89052,860.82732 c 0,0 -4.8245,-37.40775 14.0869,-57.06223 31.68893,-32.93407 91.6128,-45.33038 149.77133,-13.96084 26.67021,14.38537 44.27857,48.41082 44.27857,48.41082"
         id="path30" />
      <path
         style="fill:none;fill-opacity:0.963572;stroke:#bdc8d6;stroke-width:2.28;stroke-linecap:round;stroke-linejoin:round;stroke-dasharray:none;stroke-opacity:1"
         d="m 591.25938,856.92939 c 6.3462,9.58832 4.52884,32.50622 4.52884,32.50622"
         id="path31" />
      <path
         style="fill:none;fill-opacity:0.963572;stroke:#bdc8d6;stroke-width:2.28;stroke-linecap:round;stroke-linejoin:round;stroke-dasharray:none;stroke-opacity:1"
         d="m 595.0386,918.41018 c -2.41687,28.336 -29.59102,86.96232 -63.99277,101.52492 -34.40174,14.5626 -85.55534,19.0072 -121.1931,10.3328 -35.63776,-8.6743 -139.03585,-44.50973 -163.90207,-50.86275 -42.94026,-10.97072 -100.93853,-3.91522 -100.93853,-3.91522"
         id="path32" />
      <path
         style="fill:none;fill-opacity:0.963572;stroke:#bdc8d6;stroke-width:2.28;stroke-linecap:round;stroke-linejoin:round;stroke-dasharray:none;stroke-opacity:1"
         d="m 137.38776,974.7983 c 0,0 25.35137,6.17425 35.78281,10.45228 10.43145,4.27802 56.25331,27.57202 56.25331,27.57202"
         id="path33" />
      <path
         style="fill:none;fill-opacity:0.963572;stroke:#bdc8d6;stroke-width:2.28;stroke-linecap:round;stroke-linejoin:round;stroke-dasharray:none;stroke-opacity:1"
         d="m 247.45449,1021.4543 c 14.53739,8.3631 32.50113,16.3667 32.50113,16.3667"
         id="path34" />
      <path
         style="fill:none;fill-opacity:0.963572;stroke:#bdc8d6;stroke-width:2.28;stroke-linecap:round;stroke-linejoin:round;stroke-dasharray:none;stroke-opacity:1"
         d="m 295.91682,1043.3793 c 20.42446,9.9766 34.30968,14.5275 34.30968,14.5275"
         id="path35" />
      <path
         style="fill:none;fill-opacity:0.963572;stroke:#bdc8d6;stroke-width:2.28;stroke-linecap:round;stroke-linejoin:round;stroke-dasharray:none;stroke-opacity:1"
         d="m 348.47961,1062.7022 c 42.24095,5.4223 93.7515,8.1527 139.47909,-8.202 29.1168,-10.4138 38.92858,-22.8501 38.92858,-22.8501"
         id="path36" />
      <path
         style="fill:none;fill-opacity:0.963572;stroke:#bdc8d6;stroke-width:2.28;stroke-linecap:round;stroke-linejoin:round;stroke-dasharray:none;stroke-opacity:1"
         d="m 358.31628,851.21179 c -2.99246,-3.56561 -8.37751,-8.76775 -9.90552,-0.81574 -1.52801,7.95201 9.86057,4.93939 9.86057,4.93939"
         id="path37" />
      <path
         style="fill:none;fill-opacity:0.963572;stroke:#bdc8d6;stroke-width:2.28;stroke-linecap:round;stroke-linejoin:round;stroke-dasharray:none;stroke-opacity:1"
         d="m 384.45018,864.0842 c 0,0 6.80649,0.63283 4.41856,4.29068 -2.38793,3.65784 -5.57145,-0.2453 -5.57145,-0.2453"
         id="path38" />
      <path
         style="fill:none;fill-opacity:0.963572;stroke:#bdc8d6;stroke-width:2.28;stroke-linecap:round;stroke-linejoin:round;stroke-dasharray:none;stroke-opacity:1"
         d="m 368.88641,882.84389 c 0,0 -1.63962,4.1035 1.82873,5.22267 3.46835,1.11918 6.38757,-3.04052 5.3614,-5.97989 -1.02616,-2.93938 -5.62453,-1.89849 -5.62453,-1.89849"
         id="path39" />
      <path
         style="fill:none;fill-opacity:0.963572;stroke:#bdc8d6;stroke-width:2.28;stroke-linecap:round;stroke-linejoin:round;stroke-dasharray:none;stroke-opacity:1"
         d="m 139.95381,938.62537 c 0,0 -11.97297,-40.76606 12.33569,-89.30431 24.30865,-48.53826 80.60378,-89.73038 134.53621,-85.8414 68.89726,4.96808 90.84356,43.20902 90.84356,43.20902"
         id="path40" />
      <path
         style="fill:none;fill-opacity:0.963572;stroke:#bdc8d6;stroke-width:2.28;stroke-linecap:round;stroke-linejoin:round;stroke-dasharray:none;stroke-opacity:1"
         d="M 126.06957,923.65607 68.520585,922.50899"
         id="path41" />
      <path
         style="fill:none;fill-opacity:0.963572;stroke:#bdc8d6;stroke-width:2.28;stroke-linecap:round;stroke-linejoin:round;stroke-dasharray:none;stroke-opacity:1"
         d="m 131.2283,858.95182 -17.33786,-4.41623"
         id="path42" />
      <path
         style="fill:none;fill-opacity:0.963572;stroke:#bdc8d6;stroke-width:2.28;stroke-linecap:round;stroke-linejoin:round;stroke-dasharray:none;stroke-opacity:1"
         d="M 156.03454,803.0692 128.80549,772.31368"
         id="path43" />
      <path
         style="fill:none;fill-opacity:0.963572;stroke:#bdc8d6;stroke-width:2.28;stroke-linecap:round;stroke-linejoin:round;stroke-dasharray:none;stroke-opacity:1"
         d="m 216.16288,767.45722 -7.0297,-15.36148"
         id="path44" />
      <path
         style="fill:none;fill-opacity:0.963572;stroke:#bdc8d6;stroke-width:2.28;stroke-linecap:round;stroke-linejoin:round;stroke-dasharray:none;stroke-opacity:1"
         d="m 268.68025,745.40861 1.47414,-50.08836"
         id="path45" />
      <path
         style="fill:none;fill-opacity:0.963572;stroke:#bdc8d6;stroke-width:2.28;stroke-linecap:round;stroke-linejoin:round;stroke-dasharray:none;stroke-opacity:1"
         d="m 329.6348,758.35194 10.62748,-21.50608"
         id="path46" />
      <path
         style="fill:none;fill-opacity:0.963572;stroke:#bdc8d6;stroke-width:2.28;stroke-linecap:round;stroke-linejoin:round;stroke-dasharray:none;stroke-opacity:1"
         d="m 383.02177,787.33414 33.66195,-34.20759"
         id="path47" />
    </g>
    <path
       id="path2"
       style="display:inline;fill:#ffffff;fill-opacity:0.963572;stroke-width:3.77953;stroke-linecap:round;stroke-linejoin:round"
       d="m 478.41982,129.87202 c -4.83917,0 -103.18325,22.26106 -176.87304,70.5625 -73.69004,48.30145 -62.68018,62.85133 -65.67188,78.14258 -2.99145,15.29124 17.35212,55.41878 32.23438,63.72266 14.88202,8.30364 55.56051,21.61914 57.94922,21.61914 h 3.87109 c 0,0 2.76484,1.78527 3.90039,1.82226 1.13554,0.037 2.6199,-2.14837 4.01563,-1.98437 1.39549,0.164 2.15977,3.30531 3.72461,3.72461 1.5646,0.4193 10.43557,0.97705 11.26953,1.76953 0.83395,0.79249 -0.24478,2.25384 0.96875,2.49023 1.21354,0.23639 6.36184,-1.29317 9.30664,-0.14648 2.94456,1.14669 7.31015,0.76326 8.11523,2.95898 0.80508,2.19571 0.6673,3.85662 5.14844,4 4.48091,0.14339 16.26275,0.75367 18.82812,2.55469 2.5656,1.80102 39.88885,17.41975 40.44727,18.20313 0.55842,0.78315 0.0228,3.49968 3.0625,3.9746 3.03974,0.47491 -1.09061,-3.89818 5.10742,0.77149 6.19826,4.66944 16.03385,12.27612 18.01367,12.5625 1.98006,0.28638 4.19586,-0.32038 4.23829,0.0937 0.0421,0.41427 -0.90633,3.7826 -0.0195,4.6289 0.88665,0.84655 12.03745,10.00817 13.22657,16.41797 1.18912,6.41005 -2.89558,28.7182 -7.68946,36.07032 -4.79363,7.35188 -13.97743,22.02823 -16.49804,24.06836 -2.52085,2.03988 -7.95853,5.29241 -9.04883,6.5664 -1.0903,1.27399 0.92858,1.53251 0.79101,2.42188 -0.13757,0.88937 -10.41698,8.9976 -10.46484,9.748 -0.0479,0.7505 -0.14453,3.5997 -0.14453,3.5997 0,0 -7.54687,11.2007 -15.52344,15.7441 -7.97657,4.5433 -41.4925,28.81282 -48.66016,31.87112 -7.16742,3.0584 -24.5452,7.645 -22.08984,10.1934 2.45535,2.5483 13.23472,-2.5055 16.13281,-3.5117 2.89832,-1.0062 20.13418,-11.4758 22.98047,-12.6817 2.84654,-1.206 32.87696,-21.98632 32.87696,-21.98632 0,0 13.26091,-11.9959 14.60937,-13.7149 1.34845,-1.7192 4.35327,-7.2772 6.35938,-8.1582 2.00587,-0.881 20.09897,-21.23244 21.16796,-20.31639 1.06923,0.91606 -24.5001,28.71519 -22.76171,30.36139 1.73815,1.6457 5.70333,-5.9532 7.21484,-5.0372 1.5115,0.9159 -6.011,7.277 -7.30274,9.5059 -1.2915,2.2289 0.52839,4.0235 -2.21484,4.0235 -2.74323,0 -31.80959,22.65082 -35.78125,25.33012 -3.97143,2.677 -51.84925,37.9924 -103.31445,42.7031 -51.46519,4.7108 -48.23242,-10.0625 -48.23242,-10.0625 0,0 7.64321,2.5518 10.20312,-1.0489 2.55991,-3.5982 -14.63079,-2.9709 -19.83203,-8.7558 -5.20123,-5.7851 -14.82681,-13.2005 -18.41211,-19.041 -3.58529,-5.8404 -7.93555,-11.6075 -7.93555,-11.6075 0,0 3.93755,10.9684 4.61329,15.4004 0.6755,4.4321 6.57509,6.0808 6.45507,8.0899 -0.12002,2.0091 -1.70549,5.2121 1.90039,8.8163 3.60612,3.6045 20.83043,19.8714 31.77735,23.8595 10.94692,3.9881 23.76708,7.7037 30.15039,8.8027 6.38307,1.0988 29.48706,0.6946 35.4082,-0.7656 5.92138,-1.4602 21.76732,-8.7879 26.29492,-9.1289 4.52784,-0.341 6.90023,0.056 11.29297,-1.9825 4.39298,-2.0384 2.52451,-4.4618 6.97461,-6.1777 4.45033,-1.7159 27.24848,-11.2995 32.9668,-14.623 5.71807,-3.3234 17.62382,-10.4639 21.48047,-13.3672 3.85641,-2.9033 9.32555,-3.0917 11.20117,-5.2324 1.87562,-2.1407 10.86951,-6.663 13.16211,-10.6172 2.2926,-3.9543 18.14155,-12.5462 21.08984,-17.88492 2.94829,-5.3386 3.94826,-14.571 9.24805,-17.6601 5.29955,-3.0893 17.3431,-16.18418 18.87305,-22.62305 1.52971,-6.43887 11.66332,-46.65097 9.2539,-57.08398 -5.34498,-23.14535 -20.97883,-37.92395 -36.53515,-47.77149 -15.55655,-9.84754 -37.70503,-24.9006 -53.3125,-29.82812 -15.60771,-4.92777 -146.67795,-51.45818 -152.48438,-55.75196 -5.80643,-4.29353 -6.99219,-20.03906 -6.99219,-20.03906 5.91448,-8.09107 15.64175,-21.41715 17.83203,-21.61719 2.19053,-0.20003 2.47693,-2.49016 3.66016,-3.58789 1.18322,-1.09773 2.43786,0.10157 5.24219,-2.13476 2.80434,-2.23656 106.40336,-70.95246 158.03906,-77.43164 51.63571,-6.47941 52.40053,-10.26764 61.03125,-2.00586 8.63071,8.26179 -3.527,13.76425 -0.4082,20.78906 3.11856,7.0248 6.51001,8.10897 7.18164,11.46875 0.67162,3.35977 -0.35922,6.64022 0.72265,6.64844 1.08211,0.008 1.98537,-3.11393 2.91211,-0.0527 0.92674,3.06137 4.71225,12.48677 9.70899,11.75977 4.99651,-0.727 5.32586,-3.62803 8.36328,-6.61328 3.03742,-2.98549 0.0166,-4.05691 1.16211,-10.50586 1.14552,-6.44918 1.66193,-16.12877 0.36914,-24.67578 -1.29278,-8.54724 -5.79902,-10.77438 -5.96875,-12.79493 -0.16974,-2.02032 -0.55487,-4.14987 -0.72461,-5.42382 -0.16973,-1.27418 -0.57771,-9.54288 -0.77148,-11.19141 -0.19376,-1.64853 -3.90775,-6.33659 -6.29102,-8.0293 -2.38328,-1.6927 2.32593,-2.56086 -3.17383,-5.72461 -5.49951,-3.16352 -34.15864,-17.48242 -38.99805,-17.48242 z m -59.29101,24.26953 c 0.5718,-0.006 0.98095,0.067 1.01562,0.26367 0.12326,0.69957 -1.41716,3.00141 -2.76757,2.95118 -1.35057,-0.0502 -2.82954,-0.48053 -2.32422,-2.34766 0.0858,-0.31697 2.6149,-0.85091 4.07617,-0.86719 z m 29.75391,1.56055 c 0.49177,-0.002 0.80898,0.0614 0.92968,0.20117 1.9313,2.23656 -13.84601,6.24834 -21.91211,8.63867 -8.06585,2.39056 -10.39801,3.0321 -11.84375,3.29297 -1.4455,0.26087 -6.42664,3.72799 -9.32031,5.33594 -2.89366,1.60796 -9.48525,0.66759 -12.59375,2.3457 -3.1085,1.67811 -41.59131,20.41154 -45.45117,22.32617 -3.85987,1.91486 -53.07174,30.13446 -57.09766,32.81055 -4.02568,2.6761 -36.40874,28.76672 -38.24414,27.99805 -3.22863,-1.35227 12.6801,-13.47974 15.74805,-16.5332 3.06794,-3.05369 43.58363,-30.40758 46.90234,-32.42383 3.31895,-2.01625 62.59636,-31.91056 71.05078,-35.5 7.92623,-3.36532 54.45536,-18.4612 61.83204,-18.49219 z m -40.30664,1.7832 c 0.80885,-0.006 1.38649,0.0669 1.43554,0.26368 0.1744,0.69939 -2.00316,3.00335 -3.91406,2.95312 -1.9109,-0.0502 -4.00404,-0.48053 -3.28906,-2.34766 0.12134,-0.31696 3.70006,-0.85286 5.76758,-0.86914 z m -12.41797,4.4668 c 0.20888,-0.005 0.34591,0.0272 0.38671,0.10742 0.32784,0.64213 -1.27358,3.37728 -3.14648,3.75977 -1.87291,0.38248 -4.00739,0.43738 -3.73242,-1.54297 0.0568,-0.40926 5.03002,-2.29056 6.49219,-2.32422 z m -13.9336,5.05859 c 0.11655,0.003 0.19388,0.0336 0.22461,0.0937 0.32784,0.64213 -1.27358,3.37728 -3.14648,3.75977 -1.87291,0.38248 -3.73242,-1.54492 -3.73242,-1.54492 0.78402,0.0506 5.5277,-2.33833 6.65429,-2.3086 z m -39.83008,18.76758 c 0.36062,-0.0138 0.65279,0.0522 0.86133,0.21094 2.22441,1.69335 -10.88938,8.04818 -13.67773,8.97266 -2.78836,0.92425 -14.271,5.55221 -5.75195,1.13867 5.08234,-2.63329 15.0826,-10.18918 18.56835,-10.32227 z m -27.08203,14.4043 c 0.0575,0.002 0.10235,0.0133 0.13477,0.0352 1.03745,0.70314 -1.04632,3.47867 -3.07031,4.54297 -2.02419,1.0643 -13.8165,8.85089 -14.61719,8.59961 -0.80069,-0.25128 -0.76953,-1.59765 -0.76953,-1.59765 3.03955,-2.18128 16.53842,-11.63085 18.32226,-11.58008 z m -24.35937,15.41797 c 0.104,0.009 0.19471,0.0305 0.27344,0.0684 2.51912,1.21173 -14.67918,13.94218 -17.22461,15.4082 -2.54566,1.46601 -13.50111,7.57273 -6.04297,1.53711 4.75626,-3.8494 19.77003,-17.27967 22.99414,-17.01367 z m 48.34179,126.59961 c 1.63882,0.027 3.5021,0.97602 3.92579,1.67578 0.52146,0.86125 0.76236,2.53417 -0.82422,2.1289 -1.58659,-0.40528 -3.75498,-0.9994 -3.875,-1.97656 -0.12002,-0.97716 -0.30469,-1.68554 -0.30469,-1.68555 0.33381,-0.10612 0.70007,-0.1488 1.07812,-0.14257 z m 12.20313,2.92578 c 0.16929,0.002 0.33887,0.0381 0.50195,0.11914 1.04375,0.51845 0.27038,1.86901 -0.66211,2.66601 -0.9325,0.79712 -1.3899,-0.81391 -1.67187,-1.83984 0,0 0.91788,-0.95746 1.83203,-0.94531 z m -23.07422,0.31836 c 6.76935,0.12884 7.26839,1.37498 9.42774,1.48047 2.46768,0.12057 13.68169,4.86624 14.35742,6.03906 0.67574,1.17281 2.6823,3.17383 5.5957,3.17383 2.91339,0 7.19034,-1.34761 12.7168,2.55664 5.52631,3.9041 22.84281,11.18594 27.13672,10.12109 4.29376,-1.06485 9.91444,4.4082 11.02148,4.4082 1.10705,0 8.57353,1.3016 8.82617,0 0.25265,-1.30145 -2.56721,-1.64757 -3.4375,-1.90625 -0.87029,-0.25867 -2.58137,-1.89832 -3.66211,-2.53515 -1.08075,-0.63682 -1.6014,0.44086 -3.32226,-0.36914 -1.72085,-0.81001 -16.80395,-8.67966 -24.04688,-10.16211 -7.24278,-1.48246 -26.17937,-9.05274 -26.62109,-9.60352 -0.44172,-0.55079 35.87158,9.10522 40.66406,11.05664 4.79263,1.95158 38.16229,16.84347 40.39063,18.66407 2.22818,1.82044 16.93689,8.83509 25.14257,17.4414 8.20585,8.6063 13.90604,15.33291 11.66016,15.21289 -2.24588,-0.12002 -13.76569,-17.06054 -15.3457,-17.06054 -1.58001,0 -7.47921,-2.16582 -9.0625,-4.57227 -1.5833,-2.40646 -6.12573,-4.78882 -7.43555,-3.47461 -1.30982,1.31421 -0.18834,3.9897 1.78516,3.83789 1.97335,-0.15181 1.9846,2.22341 2.86914,2.60156 0.88454,0.37815 10.79531,3.61153 7.9707,5.86328 -2.82461,2.25191 -7.67663,-4.4746 -10.32422,-4.4746 -2.6476,0 -8.88806,-0.15645 -10.46094,-2.00391 -1.57273,-1.84745 -4.3904,-4.64007 -5.1582,-4.90039 -0.76781,-0.26032 -4.19808,2.81036 -5.02344,1.36133 -0.82535,-1.44902 3.99622,0.86471 -0.82421,-3.29493 -4.82058,-4.15949 -34.52194,-13.85401 -36.58204,-14.38671 -2.05993,-0.53269 -5.95085,0.40122 -8.41211,-0.90625 -2.4611,-1.30763 -3.42256,-3.91323 -5.29687,-4.70899 -1.87431,-0.79576 -10.14441,-0.79917 -12.21875,-1.33789 -2.07434,-0.53873 0.41626,-3.23173 -0.79492,-3.6289 -1.21117,-0.39733 -4.51696,-0.53307 -6.97657,-1.73438 -2.45946,-1.20131 -2.66307,-0.55966 -4.52148,-0.93945 -1.85842,-0.3798 -3.1239,-3.14518 -5.25195,-3.68555 -2.12805,-0.54037 -7.56963,-3.51423 -8.84766,-3.76562 -1.27804,-0.25156 -6.15124,0.54687 -7.98828,0.54687 -1.83704,0 -1.31098,-3.21213 -2.20703,-3.09375 -0.89605,0.11838 -6.88086,1.78653 -6.88086,-0.01 0,-1.79577 7.83008,-1.79101 7.83008,-1.79101 1.24611,-0.0338 2.34152,-0.0379 3.30859,-0.0195 z m 14.14649,11.52343 c 0.91947,0 4.32793,1.35957 4.65429,2.25782 0.32636,0.89824 -0.80212,3.08189 -1.625,1.95703 -0.82289,-1.12486 -3.20069,-1.24425 -3.57226,-2 -0.37158,-0.75575 0.54297,-2.21484 0.54297,-2.21485 z m 120.09375,46.07422 c 0,0 0.80178,2.53344 -0.46485,2.49024 -1.26662,-0.0432 -0.98996,-1.30451 0.2168,-2.47852 z m 7.25585,83.80469 c 0.92111,8e-4 1.64522,0.79315 0.86524,2.70703 -0.99837,2.44977 -2.93105,1.78645 -2.87305,-0.47265 l 0.27539,0.61328 c 0,0 -0.24621,-2.13643 0.94141,-2.66992 0.25979,-0.1167 0.5332,-0.17796 0.79101,-0.17774 z m -3.33593,5.35156 c 0.11531,-2.2e-4 0.23052,0.0145 0.34765,0.0488 1.24938,0.36621 1.96792,1.78666 -0.38281,3 -2.35072,1.21334 -3.38907,-0.54703 -1.87695,-2.22656 l -0.18946,0.64453 c 0,0 0.98685,-1.46468 2.10157,-1.4668 z m 2.12695,7.47266 c 0,0 1.59766,0.42285 1.59766,1.66797 0,1.24512 -3.03489,2.14315 -3.88086,1.82422 -0.84597,-0.31894 1.39732,-2.27342 2.2832,-3.49219 z m 10.87891,0.27344 c 0,0 2.29882,0.50692 2.29883,1.51758 0,1.01062 -3.89754,3.85437 -4.75586,3.61914 -0.85837,-0.23522 1.03365,-3.05533 2.45703,-5.13672 z m -249.43946,7.68945 v 0.002 c 0,0 -11.12133,16.64556 -12.32812,18.87496 -1.20679,2.2295 -8.21645,27.60032 12.41406,38.78522 20.6305,11.185 25.53962,13.7641 50.51172,16.6211 24.9721,2.8569 37.88481,-2.9837 40.45313,-3.2226 2.56831,-0.2389 0.49174,-1.995 1.31445,-2.043 0.82272,-0.048 5.37432,0.189 7.36523,-0.092 1.99091,-0.2808 1.1267,-0.9551 2.53516,-0.9551 1.40846,0 2.90157,2.3693 3.78125,2.3243 0.87968,-0.044 0.51009,-3.9711 1.52734,-4.1621 1.01725,-0.1911 1.79283,1.3281 2.26367,1.2851 0.47085,-0.043 0.92928,-1.4597 1.07227,-2.0625 0.143,-0.6028 9.4815,-2.1804 17.56836,-8.3203 8.08686,-6.1399 13.97592,-8.9759 -9.73438,-0.3945 -23.71029,8.5813 -66.38524,15.9256 -84.46093,11.4629 -18.07569,-4.4628 -35.65722,-18.6914 -39.53711,-22.4903 -3.87989,-3.7989 -4.08185,-12.88722 -4.06055,-16.11912 0.0213,-3.232 1.52839,-6.1101 1.66211,-6.6817 0.13372,-0.5719 2.69045,-0.37 2.85937,-0.8378 0.16893,-0.4679 -0.51996,-2.3721 -1.40429,-2.631 -0.88433,-0.2588 7.71095,-19.34371 6.19726,-19.34371 z m 245.06836,0.35156 c 0.10328,0.004 0.19187,0.0467 0.26758,0.13282 1.2114,1.37795 -1.77699,9.18018 -4.32031,10.79878 -2.54333,1.6187 -5.81898,10.5152 -7.16602,8.9395 -1.34703,-1.5757 2.04688,-7.3008 2.04688,-7.3008 3.11715,-3.9658 7.62279,-12.63727 9.17187,-12.5703 z m -20.58007,8.2168 c 0.0443,0 0.0869,4e-4 0.13085,0.012 0.70336,0.1806 -2.34995,5.5096 -3.07617,4.9531 -0.72622,-0.5565 0.49805,-1.8418 0.49805,-1.8418 1.06557,-1.407 1.78228,-3.0695 2.44727,-3.123 z m 1.83398,17.4316 c 0.22389,-0.015 0.43349,0.043 0.62695,0.1934 1.23814,0.9595 -7.45643,9.1798 -8.39843,8.459 -0.94207,-0.7208 3.00585,-4.959 3.00585,-4.959 1.91803,-1.4064 3.55659,-3.614 4.76563,-3.6934 z m -25.59375,19.31452 c 0,0 2.40127,2.4635 -0.4668,2.6367 -2.868,0.1732 -2.35128,-1.2966 0.4668,-2.6367 z m -14.35742,12.5781 c 0.22378,0.01 0.43111,0.094 0.61523,0.2774 1.47299,1.4676 -7.98129,8.6712 -8.71875,7.9179 -0.73746,-0.7534 4.2168,-4.582 4.2168,-4.582 0,0 2.32026,-3.6771 3.88672,-3.6133 z" />
  </g>
</svg>
