<?xml version="1.0" encoding="UTF-8" standalone="no"?>
<!-- Created with Inkscape (http://www.inkscape.org/) -->

<svg
   width="210mm"
   height="50mm"
   viewBox="0 0 210 50"
   version="1.1"
   id="svg1"
   xmlns="http://www.w3.org/2000/svg"
   xmlns:svg="http://www.w3.org/2000/svg">
  <defs
     id="defs1" />
  <g
     id="layer1">
    <path
       style="font-size:22.5778px;line-height:0;font-family:Pacifico;-inkscape-font-specification:Pacifico;text-align:center;letter-spacing:-0.264583px;text-anchor:middle;fill:#ffffff;stroke-width:5"
       d="m 40.427577,35.283578 q -0.835379,0 -1.196624,-0.361245 -0.361244,-0.383823 -0.361244,-1.422402 0,-0.699911 0.135466,-1.783646 0.158045,-1.106312 0.496712,-3.025425 0.587023,-3.544715 0.92569,-6.141162 0.2032,-1.625602 0.2032,-2.709336 0,-1.016001 -0.745067,-1.016001 -0.587023,0 -1.422402,0.609601 -0.812801,0.587022 -1.806224,1.896535 -0.316089,0.428978 -0.699912,0.428978 -0.316089,0 -0.564445,-0.293511 -0.225778,-0.31609 -0.225778,-0.699912 0,-0.361245 0.135467,-0.72249 0.158045,-0.383822 0.496712,-0.857956 1.083734,-1.512713 2.415824,-2.325514 1.332091,-0.835378 2.664181,-0.835378 1.241779,0 1.896535,0.790223 0.677334,0.790223 0.677334,2.302935 0,0.609601 -0.112889,1.44498 -0.112889,0.8128 -0.2032,1.33209 -0.09031,0.519289 -0.135467,0.722489 1.286935,-3.680181 2.889959,-5.12516 1.603023,-1.467557 3.522137,-1.467557 1.467557,0 2.302935,1.038578 0.857957,1.038579 0.857957,2.935115 0,0.745067 -0.203201,1.851379 1.12889,-3.115736 2.641603,-4.470404 1.512713,-1.354668 3.476981,-1.354668 1.580446,0 2.415825,1.016001 0.857957,1.016001 0.857957,2.844803 0,0.993423 -0.293512,2.415824 l -1.377246,6.457251 q -0.225778,1.12889 -0.225778,1.941691 0,0.948268 0.428978,1.422402 0.451557,0.474133 1.24178,0.474133 0.745067,0 1.444979,-0.496711 0.722489,-0.496712 1.693335,-1.64818 0.270933,-0.316089 0.6096,-0.316089 0.293512,0 0.451556,0.270934 0.180623,0.270933 0.180623,0.745067 0,0.880534 -0.428978,1.399824 -1.174046,1.422401 -2.325514,2.077157 -1.151468,0.654757 -2.415824,0.654757 -1.919114,0 -3.002848,-1.12889 -1.083734,-1.151468 -1.083734,-3.070581 0,-1.332091 0.541867,-3.860804 l 0.903112,-4.131738 q 0.04516,-0.2032 0.158044,-0.722489 0.112889,-0.51929 0.180623,-0.970846 0.06773,-0.474134 0.06773,-0.92569 0,-0.790223 -0.316089,-1.174045 -0.293511,-0.406401 -0.857956,-0.406401 -1.061157,0 -2.235203,1.377246 -1.151468,1.354668 -2.212624,4.51556 -1.038579,3.160892 -1.693335,8.21832 -0.158045,1.354668 -0.564445,1.828802 -0.383823,0.451556 -1.264357,0.451556 -0.767645,0 -1.12889,-0.361245 -0.338667,-0.361245 -0.338667,-1.354668 0,-0.92569 0.248356,-2.415825 0.248355,-1.512713 0.632178,-3.544715 1.038579,-5.463827 1.038579,-7.044273 0,-0.857957 -0.338667,-1.264357 -0.316089,-0.406401 -0.970846,-0.406401 -1.106312,0 -2.280357,1.264357 -1.174046,1.241779 -2.302936,4.447827 -1.106312,3.18347 -1.85138,8.62472 -0.158044,1.151468 -0.474134,1.603024 -0.293511,0.451556 -1.174045,0.451556 z m 26.173985,0 q -1.399823,0 -2.235202,-1.016001 -0.835379,-1.016001 -0.835379,-2.664181 0,-1.806224 0.835379,-3.409248 0.835379,-1.625601 2.212625,-2.596447 1.399823,-0.993423 2.957691,-0.993423 0.496712,0 0.654757,0.2032 0.180622,0.180622 0.293511,0.677334 0.474134,-0.09031 0.993423,-0.09031 1.106313,0 1.106313,0.790223 0,0.474134 -0.338667,2.25778 -0.51929,2.596447 -0.51929,3.612448 0,0.338667 0.158045,0.541867 0.180622,0.203201 0.451556,0.203201 0.428978,0 1.038579,-0.541868 0.6096,-0.564445 1.648179,-1.806224 0.270934,-0.316089 0.609601,-0.316089 0.293511,0 0.451556,0.270934 0.180622,0.270933 0.180622,0.745067 0,0.903112 -0.428978,1.399824 -0.92569,1.151468 -1.964269,1.941691 -1.038579,0.790223 -2.009424,0.790223 -0.745067,0 -1.377246,-0.496712 -0.609601,-0.519289 -0.92569,-1.399824 -1.174045,1.896536 -2.957692,1.896536 z m 0.812801,-2.280358 q 0.496712,0 0.948268,-0.587023 0.451556,-0.587023 0.654756,-1.557868 l 0.835379,-4.154316 q -0.948268,0.02258 -1.761069,0.72249 -0.790223,0.677334 -1.264357,1.806224 -0.474133,1.12889 -0.474133,2.393247 0,0.699912 0.270933,1.038579 0.293512,0.338667 0.790223,0.338667 z m 8.360123,2.280358 q -0.857956,0 -1.219201,-0.903112 -0.338667,-0.903112 -0.338667,-2.889959 0,-2.935114 0.835379,-5.576717 0.2032,-0.654756 0.654756,-0.948267 0.474134,-0.31609 1.309512,-0.31609 0.451556,0 0.632179,0.112889 0.180622,0.112889 0.180622,0.428979 0,0.361245 -0.338667,1.625601 -0.225778,0.903112 -0.361245,1.580446 -0.135466,0.677334 -0.225778,1.670758 0.745068,-1.941691 1.670758,-3.160892 0.925689,-1.219202 1.806224,-1.738491 0.903112,-0.51929 1.648179,-0.51929 1.467557,0 1.467557,1.467558 0,0.293511 -0.2032,1.422401 -0.180622,0.903112 -0.180622,1.12889 0,0.790223 0.564445,0.790223 0.632178,0 1.625601,-0.993423 0.293512,-0.293512 0.609601,-0.293512 0.293511,0 0.451556,0.270934 0.180622,0.248356 0.180622,0.677334 0,0.835379 -0.451556,1.309512 -0.632178,0.654757 -1.490135,1.128891 -0.835378,0.451556 -1.783646,0.451556 -1.196623,0 -1.828802,-0.609601 -0.6096,-0.609601 -0.6096,-1.64818 0,-0.338667 0.06773,-0.677334 0.04516,-0.451556 0.04516,-0.6096 0,-0.361245 -0.248356,-0.361245 -0.338667,0 -0.903112,0.767645 -0.541867,0.745068 -1.083735,1.986847 -0.541867,1.241779 -0.880534,2.619025 -0.248356,1.061156 -0.587023,1.444979 -0.316089,0.361245 -1.016001,0.361245 z M 87.137467,23.159299 q -0.948268,0 -1.422402,-0.428979 -0.474134,-0.451556 -0.474134,-1.241779 0,-0.790223 0.609601,-1.309512 0.632178,-0.541867 1.557868,-0.541867 0.835379,0 1.354668,0.4064 0.51929,0.406401 0.51929,1.151468 0,0.903112 -0.587023,1.444979 -0.587023,0.51929 -1.557868,0.51929 z m -0.180623,12.124279 q -1.467557,0 -2.144891,-1.038579 -0.654756,-1.038579 -0.654756,-2.754492 0,-1.016001 0.248356,-2.596447 0.270933,-1.603024 0.677334,-2.98027 0.2032,-0.722489 0.541867,-0.993423 0.338667,-0.270934 1.083734,-0.270934 1.151468,0 1.151468,0.767646 0,0.564445 -0.428978,2.619025 -0.541867,2.483558 -0.541867,3.364092 0,0.677334 0.180622,1.038579 0.180623,0.361245 0.609601,0.361245 0.4064,0 1.016001,-0.564445 0.6096,-0.564445 1.625602,-1.783647 0.270933,-0.316089 0.6096,-0.316089 0.293512,0 0.451556,0.270934 0.180623,0.270933 0.180623,0.745067 0,0.903112 -0.428979,1.399824 -2.235202,2.731914 -4.176893,2.731914 z m 4.115475,0 q -0.857957,0 -1.219201,-0.903112 -0.338667,-0.903112 -0.338667,-2.889959 0,-2.935114 0.835378,-5.576717 0.2032,-0.654756 0.654756,-0.948267 0.474134,-0.31609 1.309513,-0.31609 0.451556,0 0.632178,0.112889 0.180623,0.112889 0.180623,0.428979 0,0.361245 -0.338667,1.625601 -0.225778,0.903112 -0.361245,1.580446 -0.135467,0.677334 -0.225778,1.670758 0.745067,-1.941691 1.670757,-3.160892 0.92569,-1.219202 1.806224,-1.738491 0.903112,-0.51929 1.64818,-0.51929 1.467557,0 1.467557,1.467558 0,0.880534 -0.496712,3.183469 -0.428978,1.964269 -0.428978,2.596448 0,0.903112 0.654756,0.903112 0.451556,0 1.061157,-0.541868 0.63218,-0.564445 1.67076,-1.806224 0.27093,-0.316089 0.6096,-0.316089 0.29351,0 0.45155,0.270934 0.18063,0.270933 0.18063,0.745067 0,0.903112 -0.42898,1.399824 -0.97085,1.196623 -2.099738,1.964268 -1.106312,0.767646 -2.528713,0.767646 -1.151468,0 -1.738491,-0.654757 -0.587023,-0.677334 -0.587023,-1.94169 0,-0.632179 0.316089,-2.257781 0.293512,-1.422401 0.293512,-1.964268 0,-0.361245 -0.248356,-0.361245 -0.293511,0 -0.835379,0.767645 -0.519289,0.745068 -1.083734,1.986847 -0.541867,1.241779 -0.880534,2.619025 -0.248356,1.061156 -0.587023,1.444979 -0.316089,0.361245 -1.016001,0.361245 z m 17.413801,-4.470405 q 0.29351,0 0.45156,0.270934 0.18062,0.270933 0.18062,0.745067 0,0.812801 -0.38383,1.399824 -0.63217,0.970845 -1.67075,1.512712 -1.016,0.541868 -2.4384,0.541868 -2.16747,0 -3.3641,-1.286935 -1.19662,-1.309512 -1.19662,-3.522137 0,-1.557868 0.65476,-2.889958 0.65475,-1.354668 1.80622,-2.144891 1.17405,-0.790224 2.6416,-0.790224 1.30951,0 2.09974,0.790224 0.79022,0.767645 0.79022,2.099735 0,1.557868 -1.12889,2.686758 -1.10631,1.106313 -3.79307,1.761069 0.54187,1.038579 1.8288,1.038579 0.92569,0 1.51271,-0.428979 0.60961,-0.428978 1.39983,-1.444979 0.27093,-0.338667 0.6096,-0.338667 z m -3.70276,-3.951115 q -0.83538,0 -1.4224,0.970845 -0.56445,0.970846 -0.56445,2.348092 v 0.04516 q 1.33209,-0.316089 2.09974,-0.948267 0.76764,-0.632179 0.76764,-1.467557 0,-0.428979 -0.24835,-0.677334 -0.22578,-0.270934 -0.63218,-0.270934 z m 32.70533,3.273781 q 0.29351,0 0.45155,0.270934 0.18063,0.270933 0.18063,0.745067 0,0.880534 -0.42898,1.399824 -1.08374,1.309512 -2.19005,2.032002 -1.10631,0.699912 -2.61902,0.699912 -1.67076,0 -2.73192,-0.970846 -1.06115,-0.993423 -1.98684,-3.070581 -0.67734,-1.490135 -1.12889,-2.212624 -0.42898,-0.745068 -0.85796,-1.038579 -0.42898,-0.316089 -1.08374,-0.383823 l -0.24835,1.670758 q -0.47413,3.228625 -1.85138,4.651027 -1.35467,1.422401 -3.74792,1.422401 -1.55786,0 -2.77706,-0.745067 -1.19663,-0.767646 -1.67076,-1.941691 -0.15805,-0.406401 -0.15805,-0.880534 0,-0.677335 0.31609,-1.174046 0.31609,-0.496712 0.8128,-0.496712 0.29351,0 0.49671,0.158045 0.20321,0.135467 0.38383,0.496711 0.69991,1.309513 1.2192,1.828802 0.54187,0.51929 1.33209,0.51929 0.90311,0 1.53529,-0.812801 0.65476,-0.835379 0.92569,-2.551292 l 0.31609,-2.144891 h -0.36125 q -0.51929,0 -0.8128,-0.293511 -0.29351,-0.293511 -0.29351,-0.812801 0,-0.587023 0.29351,-0.92569 0.31609,-0.361245 0.76765,-0.361245 h 0.74507 q 0.15804,-1.106312 0.22577,-1.53529 l 0.69992,-5.080005 q -0.58703,-0.06773 -1.10632,-0.06773 -1.91911,0 -2.91253,0.677334 -0.99343,0.654757 -0.99343,1.896536 0,0.564445 0.11289,0.92569 0.13547,0.338667 0.33867,0.767645 0.0903,0.180622 0.0903,0.4064 0,0.496712 -0.47413,0.880534 -0.45156,0.361245 -1.016,0.361245 -0.72249,0 -1.06116,-0.632178 -0.67733,-1.196624 -0.67733,-2.573869 0,-1.422402 0.76764,-2.596448 0.79022,-1.174045 2.37067,-1.873957 1.58045,-0.72249 3.90596,-0.72249 1.016,0 1.85138,0.112889 0.85796,0.112889 1.87396,0.428979 1.10631,0.338667 1.10631,1.264356 0,1.241779 -1.06116,1.241779 l -0.88053,6.073429 q 2.6416,-0.270934 4.28978,-2.25778 1.67076,-2.009424 2.77707,-5.44125 0.2032,-0.632179 0.67733,-0.970846 0.49671,-0.338667 1.24178,-0.338667 0.63218,0 0.97085,0.293512 0.36124,0.270933 0.36124,0.790223 0,0.158044 -0.0903,0.519289 -1.12889,3.725337 -3.22862,5.915384 -2.09974,2.190047 -4.5833,2.912536 0.85796,0.203201 1.39983,0.609601 0.56444,0.4064 0.94826,1.016001 0.38383,0.587023 0.88054,1.648179 0.69991,1.490135 1.30951,2.122314 0.6096,0.6096 1.4224,0.6096 0.72249,0 1.37725,-0.474133 0.65475,-0.496712 1.64818,-1.670758 0.27093,-0.316089 0.6096,-0.316089 z m 0.14178,5.147739 q -0.85796,0 -1.2192,-0.903112 -0.33867,-0.903112 -0.33867,-2.889959 0,-2.935114 0.83538,-5.576717 0.2032,-0.654756 0.65475,-0.948267 0.47414,-0.31609 1.30952,-0.31609 0.45155,0 0.63217,0.112889 0.18063,0.112889 0.18063,0.428979 0,0.361245 -0.33867,1.625601 -0.22578,0.903112 -0.36125,1.580446 -0.13546,0.677334 -0.22577,1.670758 0.74506,-1.941691 1.67075,-3.160892 0.92569,-1.219202 1.80623,-1.738491 0.90311,-0.51929 1.64818,-0.51929 1.46755,0 1.46755,1.467558 0,0.880534 -0.49671,3.183469 -0.42898,1.964269 -0.42898,2.596448 0,0.903112 0.65476,0.903112 0.45156,0 1.06116,-0.541868 0.63218,-0.564445 1.67075,-1.806224 0.27094,-0.316089 0.60961,-0.316089 0.29351,0 0.45155,0.270934 0.18062,0.270933 0.18062,0.745067 0,0.903112 -0.42897,1.399824 -0.97085,1.196623 -2.09974,1.964268 -1.10631,0.767646 -2.52871,0.767646 -1.15147,0 -1.73849,-0.654757 -0.58703,-0.677334 -0.58703,-1.94169 0,-0.632179 0.31609,-2.257781 0.29351,-1.422401 0.29351,-1.964268 0,-0.361245 -0.24835,-0.361245 -0.29351,0 -0.83538,0.767645 -0.51929,0.745068 -1.08374,1.986847 -0.54186,1.241779 -0.88053,2.619025 -0.24836,1.061156 -0.58702,1.444979 -0.31609,0.361245 -1.016,0.361245 z m 20.84562,-7.044274 q 0.29351,0 0.45155,0.293511 0.15805,0.293512 0.15805,0.745068 0,1.083734 -0.65476,1.286934 -1.35467,0.474134 -2.98027,0.541867 -0.42898,1.896536 -1.69333,3.048004 -1.26436,1.12889 -2.86738,1.12889 -1.35467,0 -2.32552,-0.654757 -0.94826,-0.654756 -1.44498,-1.73849 -0.49671,-1.083735 -0.49671,-2.348092 0,-1.715912 0.65476,-3.048003 0.65476,-1.354668 1.80622,-2.099735 1.15147,-0.767645 2.55129,-0.767645 1.71592,0 2.7545,1.196623 1.06115,1.174046 1.24178,2.912536 1.06115,-0.06773 2.52871,-0.451556 0.18062,-0.04515 0.31609,-0.04515 z m -7.40552,4.651027 q 0.72249,0 1.24178,-0.587023 0.54187,-0.587023 0.72249,-1.693335 -0.69991,-0.474134 -1.08374,-1.241779 -0.36124,-0.767645 -0.36124,-1.625602 0,-0.361245 0.0677,-0.722489 h -0.11289 q -0.90311,0 -1.51271,0.880534 -0.58702,0.857956 -0.58702,2.438402 0,1.241779 0.47413,1.896536 0.49671,0.654756 1.15147,0.654756 z m 16.44295,-2.754492 q 0.29351,0 0.45155,0.270934 0.18062,0.270933 0.18062,0.745067 0,0.903112 -0.42897,1.399824 -0.97085,1.196623 -2.12232,1.964268 -1.15147,0.767646 -2.6416,0.767646 -4.60587,0 -4.60587,-6.479829 0,-0.993423 0.0677,-2.009424 h -0.88053 q -0.67734,0 -0.92569,-0.248356 -0.22578,-0.248356 -0.22578,-0.790223 0,-1.264357 1.016,-1.264357 h 1.28694 q 0.38382,-2.483558 1.17404,-4.538138 0.79022,-2.05458 1.89654,-3.273781 1.12889,-1.219201 2.41582,-1.219201 0.94827,0 1.49014,0.835378 0.54186,0.835379 0.54186,2.099736 0,3.499559 -2.93511,6.096006 h 2.52871 q 0.36125,0 0.51929,0.158044 0.15805,0.158045 0.15805,0.587023 0,1.557869 -2.55129,1.557869 h -2.7545 q -0.0452,1.12889 -0.0452,1.761068 0,2.348091 0.54187,3.296359 0.56444,0.948268 1.76106,0.948268 0.97085,0 1.71592,-0.587023 0.74506,-0.587023 1.76107,-1.761069 0.27093,-0.316089 0.6096,-0.316089 z M 163.5624,17.627737 q -0.33867,0 -0.76764,0.857957 -0.40641,0.835379 -0.79023,2.348091 -0.36124,1.490135 -0.6096,3.318937 1.33209,-1.151468 1.98685,-2.573869 0.67733,-1.44498 0.67733,-2.619025 0,-1.332091 -0.49671,-1.332091 z m 6.68937,18.152552 q -1.17405,0 -1.80622,-0.541867 -0.6096,-0.541867 -0.6096,-1.219201 0,-0.587023 0.42897,-1.016001 0.42898,-0.428978 1.26436,-0.428978 0.29351,0 0.67733,0.06773 0.4064,0.04516 0.6096,0.06773 -0.0226,-0.587022 -0.27093,-1.106312 -0.22578,-0.519289 -0.58702,-0.993423 -0.36125,-0.496712 -0.67734,-0.857957 -0.69991,1.332091 -1.39982,2.212625 -0.67733,0.880534 -1.49013,1.670757 -0.4064,0.406401 -0.85796,0.406401 -0.36125,0 -0.58702,-0.248356 -0.22578,-0.270934 -0.22578,-0.654756 0,-0.451556 0.31609,-0.835379 l 0.29351,-0.361245 q 1.24178,-1.53529 1.87396,-2.528714 0.4064,-0.654756 0.8128,-1.557868 0.42898,-0.903112 1.10631,-2.46098 0.42898,-0.993423 1.78365,-0.993423 0.63217,0 0.88053,0.112889 0.24836,0.112889 0.24836,0.361244 0,0.135467 -0.0903,0.428979 -0.0903,0.293511 -0.24835,0.587023 -0.4064,0.8128 -0.4064,1.377245 0,0.338667 0.22578,0.745068 0.24835,0.4064 0.74506,1.016001 0.72249,0.948267 1.08374,1.625601 0.38382,0.654757 0.38382,1.44498 0,0.948267 -0.45155,1.806224 -0.42898,0.835378 -1.21921,1.354668 -0.79022,0.519289 -1.80622,0.519289 z"
       id="text1"
       aria-label="Marine Knots" />
  </g>
</svg>
