<?xml version="1.0" encoding="UTF-8" standalone="no"?>
<!-- Created with Inkscape (http://www.inkscape.org/) -->

<svg
   width="195mm"
   height="65mm"
   viewBox="0 0 737.00788 245.6693"
   version="1.1"
   id="svg1"
   xmlns="http://www.w3.org/2000/svg"
   xmlns:svg="http://www.w3.org/2000/svg">
  <defs
     id="defs1" />
  <g
     id="layer1">
    <path
       style="font-size:21.1667px;line-height:0;font-family:'Neon 80s';-inkscape-font-specification:'Neon 80s';text-align:center;letter-spacing:-0.138327px;text-anchor:middle;display:none;fill:#000000;fill-opacity:1;stroke-width:1.02004"
       d="m 315.0713,118.48374 q 20.87056,0 35.59098,14.72031 14.72032,14.72039 14.72032,35.59107 0,20.87057 -14.72032,35.59099 -14.72042,14.72031 -35.59098,14.72031 -20.87067,0 -35.59107,-14.72031 -14.72032,-14.72042 -14.72032,-35.59099 0,-20.87068 14.72032,-35.59107 14.7204,-14.72031 35.59107,-14.72031 z m 0,20.3665 q -12.40146,0 -21.17318,8.77171 -8.77171,8.67094 -8.77171,21.0723 0,12.40139 8.77171,21.17309 8.77172,8.77179 21.17318,8.77179 12.40138,0 21.0723,-8.77179 8.77171,-8.7717 8.77171,-21.17309 0,-12.40136 -8.77171,-21.0723 -8.67092,-8.77171 -21.0723,-8.77171 z m 76.18451,-20.76981 V 98.923798 q 0,-4.23461 3.02473,-7.259348 3.02474,-3.024729 7.25934,-3.024729 4.23459,0 7.25932,3.024729 3.02474,3.024738 3.02474,7.259348 v 19.156632 h 11.19152 q 4.2346,0 7.25934,3.02474 3.02474,3.02474 3.02474,7.25935 0,4.23461 -3.02474,7.25934 -3.02474,3.02474 -7.25934,3.02474 h -11.19152 v 70.17374 q 0,4.2346 -3.02474,7.25934 -3.02473,3.02474 -7.25932,3.02474 -4.2346,0 -7.25934,-3.02474 -3.02473,-3.02474 -3.02473,-7.25934 V 138.6486 h -11.59482 q -4.23457,0 -7.25935,-3.02474 -3.02472,-3.02473 -3.02472,-7.25934 0,-4.23461 3.02472,-7.25935 3.02478,-3.02474 7.25935,-3.02474 z m 69.53009,-9.67915 q -4.2346,0 -7.25934,-3.02473 -3.02474,-3.02474 -3.02474,-7.259319 0,-4.23461 3.02474,-7.259349 3.02474,-3.024737 7.25934,-3.024737 4.23458,0 7.25932,3.024737 3.02474,3.024739 3.02474,7.259349 0,4.234579 -3.02474,7.259319 -3.02474,3.02473 -7.25932,3.02473 z m 0,110.70514 q -4.2346,0 -7.25934,-3.02474 -3.02474,-3.02474 -3.02474,-7.25934 v -80.65946 q 0,-4.23461 3.02474,-7.25934 3.02474,-3.02474 7.25934,-3.02474 4.23458,0 7.25932,3.02474 3.02474,3.02473 3.02474,7.25934 v 80.65946 q 0,4.2346 -3.02474,7.25934 -3.02474,3.02474 -7.25932,3.02474 z m 79.10835,-100.62268 q 20.87067,0 35.591,14.72031 14.72041,14.72039 14.72041,35.59107 0,20.87057 -14.72041,35.59099 -14.72033,14.72031 -35.591,14.72031 -20.87056,0 -35.59096,-14.72031 -14.72032,-14.72042 -14.72032,-35.59099 0,-20.87068 14.72032,-35.59107 14.7204,-14.72031 35.59096,-14.72031 z m 0,20.3665 q -12.40136,0 -21.17307,8.77171 -8.77171,8.67094 -8.77171,21.0723 0,12.40139 8.77171,21.17309 8.77171,8.77179 21.17307,8.77179 12.40138,0 21.07233,-8.77179 8.77169,-8.7717 8.77169,-21.17309 0,-12.40136 -8.77169,-21.0723 -8.67095,-8.77171 -21.07233,-8.77171 z M 660.74396,118.2821 q 21.27396,1.20984 34.98608,14.92195 14.51874,14.51877 14.72042,35.08692 v 38.91824 q 0,5.84773 -3.0248,8.87247 -3.02469,3.02474 -7.25926,3.02474 -4.23479,0 -7.25938,-3.02474 -3.02469,-3.02474 -3.02469,-8.67083 v -38.91824 q 0,-0.90726 0.10028,-1.81487 -0.60484,-11.09065 -8.67083,-19.05579 -8.77185,-8.77171 -21.17321,-8.77171 h -0.40291 q -12.40137,0 -21.17307,8.77171 -8.06602,7.96514 -8.67095,19.05579 0.10039,0.90722 0.10039,1.81487 v 38.91824 q 0,5.64609 -3.02474,8.67083 -3.02474,3.02474 -7.25934,3.02474 -4.23469,0 -7.25943,-3.02474 -3.02473,-3.02474 -3.02473,-8.87247 v -38.91824 q 0.20184,-20.56815 14.72039,-35.08692 13.71212,-13.71211 34.98606,-14.92195 z"
       id="text69"
       aria-label="otion" />
    <path
       style="display:none;fill:#000000;fill-opacity:1;stroke:none;stroke-width:1.02004;stroke-linecap:round;stroke-linejoin:round;stroke-dasharray:none;stroke-opacity:1"
       d="m 221.98543,213.71338 c 48.08503,-48.08504 0,-204.0074224 0,-204.0074224 L 119.98167,162.71149 17.977854,9.7059576 V 213.71338 c 0,0 155.922536,48.08502 204.007576,0 z"
       id="path70" />
    <path
       style="display:inline;fill:#ffffff;fill-opacity:1;stroke:none;stroke-width:1.02186;stroke-linecap:round;stroke-linejoin:round;stroke-dasharray:none;stroke-opacity:1"
       d="m 40.773258,217.81713 c -48.1710011,-48.17103 0,-204.372261 0,-204.372261 L 142.95942,166.72404 245.14561,13.444869 V 217.81713 c 0,0 -156.20135,48.17102 -204.372352,0 z"
       id="path68" />
    <path
       style="font-size:21.1667px;line-height:0;font-family:'Neon 80s';-inkscape-font-specification:'Neon 80s';text-align:center;letter-spacing:-0.138327px;text-anchor:middle;display:inline;fill:#ffffff;fill-opacity:1;stroke-width:1.02186"
       d="m 315.31623,119.52396 q 20.90799,0 35.65464,14.74664 14.74676,14.74673 14.74676,35.65473 0,20.90788 -14.74676,35.65463 -14.74665,14.74664 -35.65464,14.74664 -20.90799,0 -35.65462,-14.74664 -14.74674,-14.74675 -14.74674,-35.65463 0,-20.908 14.74674,-35.65473 14.74663,-14.74664 35.65462,-14.74664 z m 0,20.40293 q -12.42353,0 -21.21093,8.78739 -8.7874,8.68644 -8.7874,21.11 0,12.42355 8.7874,21.21094 8.7874,8.7875 21.21093,8.7875 12.42356,0 21.11002,-8.7875 8.78737,-8.78739 8.78737,-21.21094 0,-12.42356 -8.78737,-21.11 -8.68646,-8.78739 -21.11002,-8.78739 z m 90.15843,32.11952 q 0.60591,11.11049 8.68635,19.08986 8.7875,8.7874 21.21103,8.7874 12.42357,0 21.11002,-8.68645 8.78738,-8.78738 8.78738,-21.21093 0,-12.42357 -8.78738,-21.21096 -8.68645,-8.7874 -21.11002,-8.7874 -12.42353,0 -21.21103,8.7874 -7.47433,7.47433 -8.58538,17.57479 v 3.83817 q 0,0.90886 -0.10059,1.81812 z M 384.97068,99.525025 q 0,-4.242167 3.03015,-7.272316 3.03015,-3.03015 7.27232,-3.03015 4.24226,0 7.27233,3.03015 3.03015,3.030149 3.03015,7.272316 v 29.695395 q 12.9286,-9.69646 29.79641,-9.69646 20.908,0 35.65465,14.74664 14.74665,14.74673 14.74665,35.65473 0,20.90788 -14.74665,35.65463 -14.74665,14.74664 -35.65465,14.74664 -20.90799,0 -35.65461,-14.74664 -14.54475,-14.54474 -14.74675,-35.14968 z m 130.35829,9.898465 q -4.24218,0 -7.27232,-3.03015 -3.03016,-3.03014 -3.03016,-7.272322 0,-4.242167 3.03016,-7.272316 3.03014,-3.030148 7.27232,-3.030148 4.24218,0 7.27232,3.030148 3.03016,3.030149 3.03016,7.272316 0,4.242182 -3.03016,7.272322 -3.03014,3.03015 -7.27232,3.03015 z m 0,110.90311 q -4.24218,0 -7.27232,-3.03015 -3.03016,-3.03015 -3.03016,-7.27232 v -80.80371 q 0,-4.24217 3.03016,-7.27232 3.03014,-3.03015 7.27232,-3.03015 4.24218,0 7.27232,3.03015 3.03016,3.03015 3.03016,7.27232 v 80.80371 q 0,4.24217 -3.03016,7.27232 -3.03014,3.03015 -7.27232,3.03015 z M 554.48001,89.626567 q 4.24217,0 7.27233,3.030149 3.03014,3.03015 3.03014,7.272312 V 210.02413 q 0,4.24217 -3.03014,7.27232 -3.03016,3.03015 -7.27233,3.03015 -4.24217,0 -7.27233,-3.03015 -3.03014,-3.03015 -3.03014,-7.27232 V 99.929028 q 0,-4.242162 3.03014,-7.272312 3.03016,-3.030149 7.27233,-3.030149 z m 91.47146,52.825423 q -5.55532,-2.5251 -12.22159,-2.5251 -12.42355,0 -21.21094,8.78739 -8.78748,8.68644 -8.78748,21.11 0,12.42355 8.78748,21.21094 8.78739,8.7875 21.21094,8.7875 12.32257,0 21.10996,-8.68645 0.1006,-0.10065 0.20224,-0.20229 2.92923,-2.9292 7.17136,-2.9292 4.24213,0 7.27233,3.03015 3.03011,2.92919 3.03011,7.17136 0,4.24218 -3.03011,7.27232 -0.1006,0.10066 -0.20225,0.20231 -14.64564,14.64569 -35.55364,14.64569 -20.90791,0 -35.65463,-14.74665 -14.74665,-14.74674 -14.74665,-35.65463 0,-20.90799 14.74665,-35.65473 14.74672,-14.74664 35.65463,-14.74664 20.908,0 35.55364,14.64569 l -0.10059,0.10066 q 0,0.10066 0.10059,0.10066 2.92913,2.9291 2.92913,7.17137 0,4.14112 -2.92913,7.07031 l -28.88737,28.68527 q -3.03011,2.92919 -7.27223,2.92919 -4.34331,0 -7.37341,-2.92919 -2.92913,-3.03014 -2.92913,-7.37327 0,-4.24226 2.92913,-7.27242 z"
       id="text70"
       aria-label="obile" />
  </g>
</svg>
