<?xml version="1.0" encoding="UTF-8" standalone="no"?>
<!-- Created with Inkscape (http://www.inkscape.org/) -->

<svg
   width="71.804039mm"
   height="23.1031mm"
   viewBox="0 0 71.804039 23.1031"
   version="1.1"
   id="svg1"
   xmlns="http://www.w3.org/2000/svg"
   xmlns:svg="http://www.w3.org/2000/svg">
  <defs
     id="defs1" />
  <g
     id="layer1"
     style="fill:#000000;fill-opacity:1"
     transform="translate(-16.280918,-65.412171)">
    <g
       id="g70"
       style="fill:#000000;fill-opacity:1"
       transform="translate(-83.165556,-190.99004)">
      <path
         style="fill:#000000;fill-opacity:1;stroke:none;stroke-width:0.104562;stroke-dasharray:none;stroke-opacity:1"
         d="m 120.88422,229.87946 v 20.91239 l 10.45619,-15.68429 10.4562,15.68429 v -20.91239 z"
         id="path61" />
      <path
         style="fill:#000000;fill-opacity:1;stroke:none;stroke-width:0.104562;stroke-dasharray:none;stroke-opacity:1"
         d="m 120.88422,229.87946 v 20.91239 l 10.45619,-15.68429 10.4562,15.68429 c 0,0 4.9291,-15.98329 0,-20.91239 -4.9291,-4.9291 -20.91239,0 -20.91239,0 z"
         id="path62" />
      <path
         style="fill:#000000;fill-opacity:1;stroke:none;stroke-width:0.104562;stroke-linecap:round;stroke-linejoin:round;stroke-dasharray:none;stroke-opacity:1"
         d="m 99.535553,220.34494 c -4.9291,-4.9291 0,-20.91239 0,-20.91239 l 10.456197,15.68429 10.4562,-15.68429 v 20.91239 c 0,0 -15.9833,4.9291 -20.912397,0 z"
         id="path63" />
      <path
         style="font-size:21.1667px;line-height:0;font-family:'Neon 80s';-inkscape-font-specification:'Neon 80s';text-align:center;letter-spacing:-0.138327px;text-anchor:middle;fill:#000000;fill-opacity:1;stroke-width:0.104562"
         d="m 152.78385,242.65311 q -0.56844,-0.25838 -1.25057,-0.25838 -1.27124,0 -2.17041,0.89917 -0.89917,0.88883 -0.89917,2.16008 0,1.27124 0.89917,2.17041 0.89917,0.89917 2.17041,0.89917 1.26091,0 2.16008,-0.88883 0.0103,-0.0103 0.0207,-0.0207 0.29972,-0.29972 0.73381,-0.29972 0.43408,0 0.74414,0.31006 0.31006,0.29972 0.31006,0.73381 0,0.43408 -0.31006,0.74414 -0.0103,0.0103 -0.0207,0.0207 -1.49862,1.49862 -3.63803,1.49862 -2.13941,0 -3.64836,-1.50896 -1.50896,-1.50895 -1.50896,-3.64836 0,-2.13941 1.50896,-3.64836 1.50895,-1.50895 3.64836,-1.50895 2.13941,0 3.63803,1.49861 l -0.0103,0.0103 q 0,0.0103 0.0103,0.0103 0.29972,0.29972 0.29972,0.7338 0,0.42375 -0.29972,0.72347 l -2.9559,2.93523 q -0.31006,0.29972 -0.74414,0.29972 -0.44442,0 -0.75448,-0.29972 -0.29972,-0.31006 -0.29972,-0.75448 0,-0.43408 0.29972,-0.74414 z m 6.88968,3.02824 q 0.062,1.13689 0.88884,1.95338 0.89917,0.89917 2.17041,0.89917 1.27124,0 2.16008,-0.88884 0.89917,-0.89917 0.89917,-2.17041 0,-1.27125 -0.89917,-2.17042 -0.88884,-0.89917 -2.16008,-0.89917 -1.27124,0 -2.17041,0.89917 -0.76481,0.76482 -0.8785,1.79835 v 0.39274 q 0,0.093 -0.0103,0.18603 z m -2.09806,-7.42074 q 0,-0.43409 0.31006,-0.74415 0.31005,-0.31006 0.74414,-0.31006 0.43408,0 0.74414,0.31006 0.31006,0.31006 0.31006,0.74415 v 3.03857 q 1.32292,-0.99218 3.04891,-0.99218 2.13941,0 3.64836,1.50895 1.50896,1.50895 1.50896,3.64836 0,2.13941 -1.50896,3.64836 -1.50895,1.50896 -3.64836,1.50896 -2.13941,0 -3.64836,-1.50896 -1.48828,-1.48828 -1.50895,-3.59668 z"
         id="text63"
         aria-label="eb" />
      <path
         style="font-size:21.1667px;line-height:0;font-family:'Neon 80s';-inkscape-font-specification:'Neon 80s';text-align:center;letter-spacing:-0.138327px;text-anchor:middle;fill:#000000;fill-opacity:1;stroke-width:0.104562"
         d="m 130.72099,267.5528 q 2.1394,0 3.64836,1.50895 1.50895,1.50896 1.50895,3.64837 0,2.1394 -1.50895,3.64836 -1.50896,1.50895 -3.64836,1.50895 -2.13941,0 -3.64837,-1.50895 -1.50895,-1.50896 -1.50895,-3.64836 0,-2.13941 1.50895,-3.64837 1.50896,-1.50895 3.64837,-1.50895 z m 0,2.08773 q -1.27125,0 -2.17042,0.89917 -0.89917,0.88884 -0.89917,2.16008 0,1.27124 0.89917,2.17041 0.89917,0.89918 2.17042,0.89918 1.27124,0 2.16008,-0.89918 0.89917,-0.89917 0.89917,-2.17041 0,-1.27124 -0.89917,-2.16008 -0.88884,-0.89917 -2.16008,-0.89917 z m 7.80952,-2.12907 v -1.96371 q 0,-0.43408 0.31006,-0.74414 0.31006,-0.31006 0.74414,-0.31006 0.43408,0 0.74414,0.31006 0.31006,0.31006 0.31006,0.74414 v 1.96371 h 1.14722 q 0.43408,0 0.74414,0.31006 0.31006,0.31006 0.31006,0.74414 0,0.43408 -0.31006,0.74414 -0.31006,0.31006 -0.74414,0.31006 h -1.14722 v 7.19337 q 0,0.43408 -0.31006,0.74414 -0.31006,0.31006 -0.74414,0.31006 -0.43408,0 -0.74414,-0.31006 -0.31006,-0.31006 -0.31006,-0.74414 v -7.19337 h -1.18856 q -0.43408,0 -0.74414,-0.31006 -0.31006,-0.31006 -0.31006,-0.74414 0,-0.43408 0.31006,-0.74414 0.31006,-0.31006 0.74414,-0.31006 z m 7.12739,-0.99219 q -0.43408,0 -0.74414,-0.31006 -0.31006,-0.31006 -0.31006,-0.74414 0,-0.43408 0.31006,-0.74414 0.31006,-0.31006 0.74414,-0.31006 0.43408,0 0.74414,0.31006 0.31006,0.31006 0.31006,0.74414 0,0.43408 -0.31006,0.74414 -0.31006,0.31006 -0.74414,0.31006 z m 0,11.34816 q -0.43408,0 -0.74414,-0.31006 -0.31006,-0.31006 -0.31006,-0.74414 v -8.26824 q 0,-0.43408 0.31006,-0.74414 0.31006,-0.31006 0.74414,-0.31006 0.43408,0 0.74414,0.31006 0.31006,0.31006 0.31006,0.74414 v 8.26824 q 0,0.43408 -0.31006,0.74414 -0.31006,0.31006 -0.74414,0.31006 z m 8.10924,-10.31463 q 2.13941,0 3.64836,1.50895 1.50896,1.50896 1.50896,3.64837 0,2.1394 -1.50896,3.64836 -1.50895,1.50895 -3.64836,1.50895 -2.1394,0 -3.64836,-1.50895 -1.50895,-1.50896 -1.50895,-3.64836 0,-2.13941 1.50895,-3.64837 1.50896,-1.50895 3.64836,-1.50895 z m 0,2.08773 q -1.27124,0 -2.17041,0.89917 -0.89917,0.88884 -0.89917,2.16008 0,1.27124 0.89917,2.17041 0.89917,0.89918 2.17041,0.89918 1.27124,0 2.16008,-0.89918 0.89917,-0.89917 0.89917,-2.17041 0,-1.27124 -0.89917,-2.16008 -0.88884,-0.89917 -2.16008,-0.89917 z m 12.38806,-2.1084 q 2.18075,0.12402 3.58635,1.52962 1.48829,1.48829 1.50896,3.59669 v 3.98943 q 0,0.59944 -0.31006,0.9095 -0.31006,0.31006 -0.74414,0.31006 -0.43409,0 -0.74414,-0.31006 -0.31006,-0.31006 -0.31006,-0.88883 v -3.98943 q 0,-0.093 0.0103,-0.18604 -0.062,-1.13688 -0.88883,-1.95337 -0.89918,-0.89917 -2.17042,-0.89917 h -0.0413 q -1.27124,0 -2.17041,0.89917 -0.82683,0.81649 -0.88884,1.95337 0.0103,0.093 0.0103,0.18604 v 3.98943 q 0,0.57877 -0.31006,0.88883 -0.31006,0.31006 -0.74414,0.31006 -0.43409,0 -0.74415,-0.31006 -0.31006,-0.31006 -0.31006,-0.9095 v -3.98943 q 0.0207,-2.1084 1.50896,-3.59669 1.4056,-1.4056 3.58635,-1.52962 z"
         id="text64"
         aria-label="otion" />
      <path
         style="font-size:21.1667px;line-height:0;font-family:'Neon 80s';-inkscape-font-specification:'Neon 80s';text-align:center;letter-spacing:-0.138327px;text-anchor:middle;fill:#000000;fill-opacity:1;stroke-width:0.104562"
         d="m 128.7417,210.55222 q 2.13941,0 3.64836,1.50895 1.50896,1.50896 1.50896,3.64837 0,2.1394 -1.50896,3.64836 -1.50895,1.50895 -3.64836,1.50895 -2.13941,0 -3.64836,-1.50895 -1.50896,-1.50896 -1.50896,-3.64836 0,-2.13941 1.50896,-3.64837 1.50895,-1.50895 3.64836,-1.50895 z m 0,2.08773 q -1.27124,0 -2.17041,0.89917 -0.89917,0.88884 -0.89917,2.16008 0,1.27124 0.89917,2.17041 0.89917,0.89918 2.17041,0.89918 1.27124,0 2.16008,-0.89918 0.89917,-0.89917 0.89917,-2.17041 0,-1.27124 -0.89917,-2.16008 -0.88884,-0.89917 -2.16008,-0.89917 z m 9.22546,3.28663 q 0.062,1.13688 0.88883,1.95337 0.89918,0.89917 2.17042,0.89917 1.27124,0 2.16008,-0.88884 0.89917,-0.89917 0.89917,-2.17041 0,-1.27124 -0.89917,-2.17041 -0.88884,-0.89917 -2.16008,-0.89917 -1.27124,0 -2.17042,0.89917 -0.76481,0.76481 -0.8785,1.79834 v 0.39274 q 0,0.093 -0.0103,0.18604 z m -2.09807,-7.42075 q 0,-0.43408 0.31006,-0.74414 0.31006,-0.31006 0.74414,-0.31006 0.43409,0 0.74414,0.31006 0.31006,0.31006 0.31006,0.74414 v 3.03858 q 1.32292,-0.99219 3.04892,-0.99219 2.13941,0 3.64836,1.50895 1.50895,1.50896 1.50895,3.64837 0,2.1394 -1.50895,3.64836 -1.50895,1.50895 -3.64836,1.50895 -2.13941,0 -3.64836,-1.50895 -1.48829,-1.48829 -1.50896,-3.59669 z m 13.33891,1.01286 q -0.43408,0 -0.74414,-0.31006 -0.31006,-0.31006 -0.31006,-0.74414 0,-0.43408 0.31006,-0.74414 0.31006,-0.31006 0.74414,-0.31006 0.43408,0 0.74414,0.31006 0.31006,0.31006 0.31006,0.74414 0,0.43408 -0.31006,0.74414 -0.31006,0.31006 -0.74414,0.31006 z m 0,11.34816 q -0.43408,0 -0.74414,-0.31006 -0.31006,-0.31006 -0.31006,-0.74414 v -8.26824 q 0,-0.43408 0.31006,-0.74414 0.31006,-0.31006 0.74414,-0.31006 0.43408,0 0.74414,0.31006 0.31006,0.31006 0.31006,0.74414 v 8.26824 q 0,0.43408 -0.31006,0.74414 -0.31006,0.31006 -0.74414,0.31006 z m 4.00613,-13.37388 q 0.43408,0 0.74414,0.31006 0.31006,0.31006 0.31006,0.74414 v 11.26548 q 0,0.43408 -0.31006,0.74414 -0.31006,0.31006 -0.74414,0.31006 -0.43408,0 -0.74414,-0.31006 -0.31006,-0.31006 -0.31006,-0.74414 v -11.26548 q 0,-0.43408 0.31006,-0.74414 0.31006,-0.31006 0.74414,-0.31006 z m 9.35982,5.40536 q -0.56845,-0.25838 -1.25058,-0.25838 -1.27124,0 -2.17041,0.89917 -0.89917,0.88884 -0.89917,2.16008 0,1.27124 0.89917,2.17041 0.89917,0.89918 2.17041,0.89918 1.26091,0 2.16008,-0.88884 0.0103,-0.0103 0.0207,-0.0207 0.29973,-0.29973 0.73381,-0.29973 0.43408,0 0.74414,0.31006 0.31006,0.29973 0.31006,0.73381 0,0.43408 -0.31006,0.74414 -0.0103,0.0103 -0.0207,0.0207 -1.49862,1.49862 -3.63803,1.49862 -2.1394,0 -3.64836,-1.50895 -1.50895,-1.50896 -1.50895,-3.64836 0,-2.13941 1.50895,-3.64837 1.50896,-1.50895 3.64836,-1.50895 2.13941,0 3.63803,1.49862 l -0.0103,0.0103 q 0,0.0103 0.0103,0.0103 0.29972,0.29972 0.29972,0.73381 0,0.42374 -0.29972,0.72347 l -2.9559,2.93522 q -0.31006,0.29973 -0.74414,0.29973 -0.44442,0 -0.75448,-0.29973 -0.29972,-0.31006 -0.29972,-0.75447 0,-0.43409 0.29972,-0.74415 z"
         id="text65"
         aria-label="obile" />
      <path
         style="fill:#000000;fill-opacity:1;stroke:none;stroke-width:0.104562;stroke-linecap:round;stroke-linejoin:round;stroke-dasharray:none;stroke-opacity:1"
         d="m 120.35888,277.3146 c 4.9291,-4.9291 0,-20.91239 0,-20.91239 l -10.4562,15.68429 -10.456206,-15.68429 v 20.91239 c 0,0 15.983306,4.9291 20.912406,0 z"
         id="path65" />
      <path
         style="fill:#000000;fill-opacity:1;stroke:none;stroke-width:0.104562;stroke-dasharray:none;stroke-opacity:1"
         d="m 120.88422,229.87946 v 20.91239 l 10.45619,-15.68429 10.4562,15.68429 v -20.91239 z"
         id="path66" />
      <path
         style="display:none;fill:#000000;fill-opacity:1;stroke:none;stroke-width:0.104562;stroke-dasharray:none;stroke-opacity:1"
         d="m 120.88422,229.87946 v 20.91239 l 10.45619,-15.68429 10.4562,15.68429 c 0,0 4.9291,-15.98329 0,-20.91239 -4.9291,-4.9291 -20.91239,0 -20.91239,0 z"
         id="path67" />
      <path
         style="display:none;fill:#000000;fill-opacity:1;stroke:none;stroke-width:0.104562;stroke-linecap:round;stroke-linejoin:round;stroke-dasharray:none;stroke-opacity:1"
         d="m 99.535553,220.34494 c -4.9291,-4.9291 0,-20.91239 0,-20.91239 l 10.456197,15.68429 10.4562,-15.68429 v 20.91239 c 0,0 -15.9833,4.9291 -20.912397,0 z"
         id="path68" />
      <path
         style="font-size:21.1667px;line-height:0;font-family:'Neon 80s';-inkscape-font-specification:'Neon 80s';text-align:center;letter-spacing:-0.138327px;text-anchor:middle;display:none;fill:#000000;fill-opacity:1;stroke-width:0.104562"
         d="m 152.78385,242.65311 q -0.56844,-0.25838 -1.25057,-0.25838 -1.27124,0 -2.17041,0.89917 -0.89917,0.88883 -0.89917,2.16008 0,1.27124 0.89917,2.17041 0.89917,0.89917 2.17041,0.89917 1.26091,0 2.16008,-0.88883 0.0103,-0.0103 0.0207,-0.0207 0.29972,-0.29972 0.73381,-0.29972 0.43408,0 0.74414,0.31006 0.31006,0.29972 0.31006,0.73381 0,0.43408 -0.31006,0.74414 -0.0103,0.0103 -0.0207,0.0207 -1.49862,1.49862 -3.63803,1.49862 -2.13941,0 -3.64836,-1.50896 -1.50896,-1.50895 -1.50896,-3.64836 0,-2.13941 1.50896,-3.64836 1.50895,-1.50895 3.64836,-1.50895 2.13941,0 3.63803,1.49861 l -0.0103,0.0103 q 0,0.0103 0.0103,0.0103 0.29972,0.29972 0.29972,0.7338 0,0.42375 -0.29972,0.72347 l -2.9559,2.93523 q -0.31006,0.29972 -0.74414,0.29972 -0.44442,0 -0.75448,-0.29972 -0.29972,-0.31006 -0.29972,-0.75448 0,-0.43408 0.29972,-0.74414 z m 6.88968,3.02824 q 0.062,1.13689 0.88884,1.95338 0.89917,0.89917 2.17041,0.89917 1.27124,0 2.16008,-0.88884 0.89917,-0.89917 0.89917,-2.17041 0,-1.27125 -0.89917,-2.17042 -0.88884,-0.89917 -2.16008,-0.89917 -1.27124,0 -2.17041,0.89917 -0.76481,0.76482 -0.8785,1.79835 v 0.39274 q 0,0.093 -0.0103,0.18603 z m -2.09806,-7.42074 q 0,-0.43409 0.31006,-0.74415 0.31005,-0.31006 0.74414,-0.31006 0.43408,0 0.74414,0.31006 0.31006,0.31006 0.31006,0.74415 v 3.03857 q 1.32292,-0.99218 3.04891,-0.99218 2.13941,0 3.64836,1.50895 1.50896,1.50895 1.50896,3.64836 0,2.13941 -1.50896,3.64836 -1.50895,1.50896 -3.64836,1.50896 -2.13941,0 -3.64836,-1.50896 -1.48828,-1.48828 -1.50895,-3.59668 z"
         id="text68"
         aria-label="eb" />
      <path
         style="font-size:21.1667px;line-height:0;font-family:'Neon 80s';-inkscape-font-specification:'Neon 80s';text-align:center;letter-spacing:-0.138327px;text-anchor:middle;display:none;fill:#000000;fill-opacity:1;stroke-width:0.104562"
         d="m 130.72099,267.5528 q 2.1394,0 3.64836,1.50895 1.50895,1.50896 1.50895,3.64837 0,2.1394 -1.50895,3.64836 -1.50896,1.50895 -3.64836,1.50895 -2.13941,0 -3.64837,-1.50895 -1.50895,-1.50896 -1.50895,-3.64836 0,-2.13941 1.50895,-3.64837 1.50896,-1.50895 3.64837,-1.50895 z m 0,2.08773 q -1.27125,0 -2.17042,0.89917 -0.89917,0.88884 -0.89917,2.16008 0,1.27124 0.89917,2.17041 0.89917,0.89918 2.17042,0.89918 1.27124,0 2.16008,-0.89918 0.89917,-0.89917 0.89917,-2.17041 0,-1.27124 -0.89917,-2.16008 -0.88884,-0.89917 -2.16008,-0.89917 z m 7.80952,-2.12907 v -1.96371 q 0,-0.43408 0.31006,-0.74414 0.31006,-0.31006 0.74414,-0.31006 0.43408,0 0.74414,0.31006 0.31006,0.31006 0.31006,0.74414 v 1.96371 h 1.14722 q 0.43408,0 0.74414,0.31006 0.31006,0.31006 0.31006,0.74414 0,0.43408 -0.31006,0.74414 -0.31006,0.31006 -0.74414,0.31006 h -1.14722 v 7.19337 q 0,0.43408 -0.31006,0.74414 -0.31006,0.31006 -0.74414,0.31006 -0.43408,0 -0.74414,-0.31006 -0.31006,-0.31006 -0.31006,-0.74414 v -7.19337 h -1.18856 q -0.43408,0 -0.74414,-0.31006 -0.31006,-0.31006 -0.31006,-0.74414 0,-0.43408 0.31006,-0.74414 0.31006,-0.31006 0.74414,-0.31006 z m 7.12739,-0.99219 q -0.43408,0 -0.74414,-0.31006 -0.31006,-0.31006 -0.31006,-0.74414 0,-0.43408 0.31006,-0.74414 0.31006,-0.31006 0.74414,-0.31006 0.43408,0 0.74414,0.31006 0.31006,0.31006 0.31006,0.74414 0,0.43408 -0.31006,0.74414 -0.31006,0.31006 -0.74414,0.31006 z m 0,11.34816 q -0.43408,0 -0.74414,-0.31006 -0.31006,-0.31006 -0.31006,-0.74414 v -8.26824 q 0,-0.43408 0.31006,-0.74414 0.31006,-0.31006 0.74414,-0.31006 0.43408,0 0.74414,0.31006 0.31006,0.31006 0.31006,0.74414 v 8.26824 q 0,0.43408 -0.31006,0.74414 -0.31006,0.31006 -0.74414,0.31006 z m 8.10924,-10.31463 q 2.13941,0 3.64836,1.50895 1.50896,1.50896 1.50896,3.64837 0,2.1394 -1.50896,3.64836 -1.50895,1.50895 -3.64836,1.50895 -2.1394,0 -3.64836,-1.50895 -1.50895,-1.50896 -1.50895,-3.64836 0,-2.13941 1.50895,-3.64837 1.50896,-1.50895 3.64836,-1.50895 z m 0,2.08773 q -1.27124,0 -2.17041,0.89917 -0.89917,0.88884 -0.89917,2.16008 0,1.27124 0.89917,2.17041 0.89917,0.89918 2.17041,0.89918 1.27124,0 2.16008,-0.89918 0.89917,-0.89917 0.89917,-2.17041 0,-1.27124 -0.89917,-2.16008 -0.88884,-0.89917 -2.16008,-0.89917 z m 12.38806,-2.1084 q 2.18075,0.12402 3.58635,1.52962 1.48829,1.48829 1.50896,3.59669 v 3.98943 q 0,0.59944 -0.31006,0.9095 -0.31006,0.31006 -0.74414,0.31006 -0.43409,0 -0.74414,-0.31006 -0.31006,-0.31006 -0.31006,-0.88883 v -3.98943 q 0,-0.093 0.0103,-0.18604 -0.062,-1.13688 -0.88883,-1.95337 -0.89918,-0.89917 -2.17042,-0.89917 h -0.0413 q -1.27124,0 -2.17041,0.89917 -0.82683,0.81649 -0.88884,1.95337 0.0103,0.093 0.0103,0.18604 v 3.98943 q 0,0.57877 -0.31006,0.88883 -0.31006,0.31006 -0.74414,0.31006 -0.43409,0 -0.74415,-0.31006 -0.31006,-0.31006 -0.31006,-0.9095 v -3.98943 q 0.0207,-2.1084 1.50896,-3.59669 1.4056,-1.4056 3.58635,-1.52962 z"
         id="text69"
         aria-label="otion" />
      <path
         style="font-size:21.1667px;line-height:0;font-family:'Neon 80s';-inkscape-font-specification:'Neon 80s';text-align:center;letter-spacing:-0.138327px;text-anchor:middle;display:none;fill:#000000;fill-opacity:1;stroke-width:0.104562"
         d="m 128.7417,210.55222 q 2.13941,0 3.64836,1.50895 1.50896,1.50896 1.50896,3.64837 0,2.1394 -1.50896,3.64836 -1.50895,1.50895 -3.64836,1.50895 -2.13941,0 -3.64836,-1.50895 -1.50896,-1.50896 -1.50896,-3.64836 0,-2.13941 1.50896,-3.64837 1.50895,-1.50895 3.64836,-1.50895 z m 0,2.08773 q -1.27124,0 -2.17041,0.89917 -0.89917,0.88884 -0.89917,2.16008 0,1.27124 0.89917,2.17041 0.89917,0.89918 2.17041,0.89918 1.27124,0 2.16008,-0.89918 0.89917,-0.89917 0.89917,-2.17041 0,-1.27124 -0.89917,-2.16008 -0.88884,-0.89917 -2.16008,-0.89917 z m 9.22546,3.28663 q 0.062,1.13688 0.88883,1.95337 0.89918,0.89917 2.17042,0.89917 1.27124,0 2.16008,-0.88884 0.89917,-0.89917 0.89917,-2.17041 0,-1.27124 -0.89917,-2.17041 -0.88884,-0.89917 -2.16008,-0.89917 -1.27124,0 -2.17042,0.89917 -0.76481,0.76481 -0.8785,1.79834 v 0.39274 q 0,0.093 -0.0103,0.18604 z m -2.09807,-7.42075 q 0,-0.43408 0.31006,-0.74414 0.31006,-0.31006 0.74414,-0.31006 0.43409,0 0.74414,0.31006 0.31006,0.31006 0.31006,0.74414 v 3.03858 q 1.32292,-0.99219 3.04892,-0.99219 2.13941,0 3.64836,1.50895 1.50895,1.50896 1.50895,3.64837 0,2.1394 -1.50895,3.64836 -1.50895,1.50895 -3.64836,1.50895 -2.13941,0 -3.64836,-1.50895 -1.48829,-1.48829 -1.50896,-3.59669 z m 13.33891,1.01286 q -0.43408,0 -0.74414,-0.31006 -0.31006,-0.31006 -0.31006,-0.74414 0,-0.43408 0.31006,-0.74414 0.31006,-0.31006 0.74414,-0.31006 0.43408,0 0.74414,0.31006 0.31006,0.31006 0.31006,0.74414 0,0.43408 -0.31006,0.74414 -0.31006,0.31006 -0.74414,0.31006 z m 0,11.34816 q -0.43408,0 -0.74414,-0.31006 -0.31006,-0.31006 -0.31006,-0.74414 v -8.26824 q 0,-0.43408 0.31006,-0.74414 0.31006,-0.31006 0.74414,-0.31006 0.43408,0 0.74414,0.31006 0.31006,0.31006 0.31006,0.74414 v 8.26824 q 0,0.43408 -0.31006,0.74414 -0.31006,0.31006 -0.74414,0.31006 z m 4.00613,-13.37388 q 0.43408,0 0.74414,0.31006 0.31006,0.31006 0.31006,0.74414 v 11.26548 q 0,0.43408 -0.31006,0.74414 -0.31006,0.31006 -0.74414,0.31006 -0.43408,0 -0.74414,-0.31006 -0.31006,-0.31006 -0.31006,-0.74414 v -11.26548 q 0,-0.43408 0.31006,-0.74414 0.31006,-0.31006 0.74414,-0.31006 z m 9.35982,5.40536 q -0.56845,-0.25838 -1.25058,-0.25838 -1.27124,0 -2.17041,0.89917 -0.89917,0.88884 -0.89917,2.16008 0,1.27124 0.89917,2.17041 0.89917,0.89918 2.17041,0.89918 1.26091,0 2.16008,-0.88884 0.0103,-0.0103 0.0207,-0.0207 0.29973,-0.29973 0.73381,-0.29973 0.43408,0 0.74414,0.31006 0.31006,0.29973 0.31006,0.73381 0,0.43408 -0.31006,0.74414 -0.0103,0.0103 -0.0207,0.0207 -1.49862,1.49862 -3.63803,1.49862 -2.1394,0 -3.64836,-1.50895 -1.50895,-1.50896 -1.50895,-3.64836 0,-2.13941 1.50895,-3.64837 1.50896,-1.50895 3.64836,-1.50895 2.13941,0 3.63803,1.49862 l -0.0103,0.0103 q 0,0.0103 0.0103,0.0103 0.29972,0.29972 0.29972,0.73381 0,0.42374 -0.29972,0.72347 l -2.9559,2.93522 q -0.31006,0.29973 -0.74414,0.29973 -0.44442,0 -0.75448,-0.29973 -0.29972,-0.31006 -0.29972,-0.75447 0,-0.43409 0.29972,-0.74415 z"
         id="text70"
         aria-label="obile" />
      <path
         style="display:inline;fill:#000000;fill-opacity:1;stroke:none;stroke-width:0.104562;stroke-linecap:round;stroke-linejoin:round;stroke-dasharray:none;stroke-opacity:1"
         d="m 120.35888,277.3146 c 4.9291,-4.9291 0,-20.91239 0,-20.91239 l -10.4562,15.68429 -10.456206,-15.68429 v 20.91239 c 0,0 15.983306,4.9291 20.912406,0 z"
         id="path70" />
    </g>
  </g>
</svg>
