<?xml version="1.0" encoding="UTF-8" standalone="no"?>
<!-- Created with Inkscape (http://www.inkscape.org/) -->

<svg
   width="210mm"
   height="25mm"
   viewBox="0 0 210 25"
   version="1.1"
   id="svg1"
   xmlns="http://www.w3.org/2000/svg"
   xmlns:svg="http://www.w3.org/2000/svg">
  <defs
     id="defs1" />
  <g
     id="layer1">
    <path
       style="fill:#1e1b4b;fill-opacity:1;stroke-width:0.343958;stroke-linecap:round"
       d="m 229.85135,21.103652 c -3.27215,0 -17.33444,-9.552874 -17.33444,-9.552874 L 180.34445,23.032642 150.62695,6.4647363 128.07987,24.159421 121.67254,15.101455 82.682997,24.146761 90.243577,6.8813803 58.658097,20.881519 19.696177,7.3854953 20.328047,16.625311 -1.4237233,13.156352 -0.12200331,52.163152 214.72098,50.496579 Z"
       id="path1" />
    <path
       style="fill:#1e1b4b;fill-opacity:1;stroke-width:0.343958;stroke-linecap:round"
       d="m 209.01767,8.8786743 -6.74351,-5.209413 -9.99888,6.116034 z"
       id="path2" />
    <path
       style="fill:#1e1b4b;fill-opacity:1;stroke-width:0.343958;stroke-linecap:round"
       d="m 125.63207,15.36338 0.13673,-1.11578 -0.7642,-10.2788447 6.02,7.4775947 z"
       id="path3" />
    <path
       style="fill:#1e1b4b;fill-opacity:1;stroke-width:0.343958;stroke-linecap:round"
       d="m 70.865277,12.127537 -19.8529,-2.1990047 13.95416,-5.075942 z"
       id="path4" />
    <path
       style="fill:#1e1b4b;fill-opacity:1;stroke-width:0.343958;stroke-linecap:round"
       d="M 6.2713267,3.5626473 17.183337,12.282982 4.9162767,10.737492 Z"
       id="path5" />
    <path
       style="fill:#1e1b4b;fill-opacity:1;stroke-width:0.343958;stroke-linecap:round"
       d="M 180.62186,3.4161553 186.10065,16.897068 180.501,12.553991 Z"
       id="path6" />
    <path
       style="fill:#1e1b4b;fill-opacity:1;stroke-width:0.343958;stroke-linecap:round"
       d="m 165.24591,4.5823933 6.11522,5.312771 -11.82596,-1.907649 z"
       id="path7" />
    <path
       style="fill:#1e1b4b;fill-opacity:1;stroke-width:0.343958;stroke-linecap:round"
       d="M 104.64955,14.174354 114.5109,3.4137143 97.020577,11.795489 Z"
       id="path8" />
    <path
       style="fill:#1e1b4b;fill-opacity:1;stroke-width:0.343958;stroke-linecap:round"
       d="m 35.785367,4.4123003 5.08326,3.558938 -6.1315,0.670607 z"
       id="path9" />
  </g>
</svg>
