<?xml version="1.0" encoding="UTF-8" standalone="no"?>
<!-- Created with Inkscape (http://www.inkscape.org/) -->

<svg
   width="210mm"
   height="297mm"
   viewBox="0 0 210 297"
   version="1.1"
   id="svg1"
   inkscape:version="1.3.2 (1:1.3.2+202311252150+091e20ef0f)"
   sodipodi:docname="works.svg"
   xmlns:inkscape="http://www.inkscape.org/namespaces/inkscape"
   xmlns:sodipodi="http://sodipodi.sourceforge.net/DTD/sodipodi-0.dtd"
   xmlns="http://www.w3.org/2000/svg"
   xmlns:svg="http://www.w3.org/2000/svg">
  <sodipodi:namedview
     id="namedview1"
     pagecolor="#ffffff"
     bordercolor="#000000"
     borderopacity="0.25"
     inkscape:showpageshadow="2"
     inkscape:pageopacity="0.0"
     inkscape:pagecheckerboard="0"
     inkscape:deskcolor="#d1d1d1"
     inkscape:document-units="mm"
     inkscape:zoom="0.6349676"
     inkscape:cx="396.87064"
     inkscape:cy="217.33392"
     inkscape:window-width="1296"
     inkscape:window-height="704"
     inkscape:window-x="0"
     inkscape:window-y="0"
     inkscape:window-maximized="1"
     inkscape:current-layer="layer1" />
  <defs
     id="defs1" />
  <g
     inkscape:label="Layer 1"
     inkscape:groupmode="layer"
     id="layer1">
    <path
       style="font-size:70.5556px;line-height:0;font-family:'Neon 80s';-inkscape-font-specification:'Neon 80s';text-align:center;letter-spacing:1.1086px;text-anchor:middle;fill:#353535;stroke-width:1;stroke-linecap:round;stroke:#000000;stroke-opacity:1;stroke-dasharray:none"
       d="M 7.3099438,29.414846 Q 7.034336,28.760278 7.034336,28.002356 q 0,-1.41249 0.9990783,-2.411568 1.0335294,-1.03353 2.4460197,-1.03353 1.41249,0 2.446019,0.999079 0.482314,0.516764 0.757922,1.136882 L 28.049433,62.177726 38.212471,41.851649 q 0.241157,-0.72347 0.861275,-1.343588 0.999078,-0.999078 2.411568,-0.999078 1.41249,0 2.446019,0.999078 0.413412,0.447863 0.654569,0.930177 L 54.921195,62.108824 69.287253,26.693219 q 0.275608,-0.620118 0.792373,-1.136882 0.999078,-0.999079 2.411568,-0.999079 1.41249,0 2.411569,1.03353 1.033529,0.999078 1.033529,2.411568 0,0.757922 -0.275608,1.41249 l -17.156587,42.27135 q -0.241157,0.68902 -0.792372,1.240236 -1.03353,1.033529 -2.44602,1.033529 -1.41249,0 -2.411568,-1.033529 -0.551216,-0.516765 -0.792373,-1.171334 L 41.519765,50.6711 30.805511,72.065157 q -0.275608,0.482314 -0.654569,0.861275 -1.033529,1.033529 -2.446019,1.033529 -1.41249,0 -2.411569,-1.033529 -0.585666,-0.551216 -0.826823,-1.240236 z M 91.927713,39.577885 q 7.131353,0 12.161197,5.029843 5.02984,5.029842 5.02984,12.161195 0,7.131352 -5.02984,12.161195 -5.029844,5.029843 -12.161197,5.029843 -7.131352,0 -12.161195,-5.029843 -5.029843,-5.029843 -5.029843,-12.161195 0,-7.131353 5.029843,-12.161195 5.029843,-5.029843 12.161195,-5.029843 z m 0,6.959097 q -4.23747,0 -7.234705,2.997236 -2.997235,2.962784 -2.997235,7.200254 0,4.23747 2.997235,7.234705 2.997235,2.997235 7.234705,2.997235 4.23747,0 7.200255,-2.997235 2.997232,-2.997235 2.997232,-7.234705 0,-4.23747 -2.997232,-7.200254 -2.962785,-2.997236 -7.200255,-2.997236 z m 42.553127,-7.027999 q 1.44694,0 2.48047,1.033529 1.03353,1.03353 1.03353,2.480471 0,1.446941 -1.03353,2.48047 -1.03353,1.033529 -2.48047,1.033529 h -0.0344 q -4.23747,0 -7.23471,2.997236 -2.75607,2.721627 -2.96278,6.511234 0.0344,0.310059 0.0344,0.620118 v 13.298077 q 0,1.929255 -1.03353,2.962785 -1.03353,1.033529 -2.48047,1.033529 -1.44694,0 -2.48047,-1.033529 -1.03353,-1.03353 -1.03353,-3.031686 V 56.596668 q 0.0689,-7.028 5.02984,-11.98894 4.75424,-4.754235 12.19565,-5.098745 z m 18.50635,21.807469 v 9.129509 q 0,1.446941 -1.03353,2.480471 -1.03353,1.033529 -2.48047,1.033529 -1.44694,0 -2.48047,-1.033529 -1.03353,-1.03353 -1.03353,-2.480471 V 32.894395 q 0,-1.446941 1.03353,-2.48047 1.03353,-1.03353 2.48047,-1.03353 1.44694,0 2.48047,1.03353 1.03353,1.033529 1.03353,2.48047 v 19.292548 l 14.91727,-11.920039 q 0.93018,-0.757921 2.17041,-0.757921 1.44694,0 2.44602,1.033529 0.99908,0.999079 0.99908,2.411569 0,1.446941 -0.99908,2.446019 -0.31006,0.310059 -0.65457,0.516765 l -13.43588,10.748705 13.9182,11.127666 -0.0689,0.0689 q 0.13781,0.103353 0.24116,0.206706 0.99908,1.033529 0.99908,2.446019 0,1.446941 -0.99908,2.44602 -0.99908,0.999078 -2.44602,0.999078 -1.20578,0 -2.10151,-0.723471 l -0.0345,0.03445 z m 38.00559,-21.807469 q 1.44694,0 2.44602,0.999078 0.99908,0.999079 0.99908,2.44602 0,1.41249 -0.99908,2.446019 -0.99908,0.999079 -2.44602,0.999079 -0.72347,0 -1.24023,0.516764 -0.48232,0.482314 -0.48232,1.205784 0,0.723471 0.48232,1.240236 0.51676,0.482313 1.24023,0.482313 4.99539,0 8.50939,3.548451 3.54845,3.514 3.54845,8.509392 0,4.995391 -3.54845,8.543842 -3.514,3.514 -8.50939,3.514 -4.99539,0 -8.54384,-3.514 -3.514,-3.548451 -3.514,-8.543842 0,-1.446941 0.99908,-2.44602 1.03353,-0.999078 2.44602,-0.999078 1.44694,0 2.44602,0.999078 0.99908,0.999079 0.99908,2.44602 0,2.13596 1.51584,3.651803 1.51584,1.515843 3.6518,1.515843 2.13596,0 3.65181,-1.515843 1.51584,-1.515843 1.51584,-3.651803 0,-2.135961 -1.51584,-3.651804 -1.51585,-1.515843 -3.65181,-1.515843 -3.5829,0 -6.09782,-2.514921 -2.51492,-2.549373 -2.51492,-6.097824 0,-3.582901 2.51492,-6.097823 2.51492,-2.514921 6.09782,-2.514921 z"
       id="text1"
       aria-label="Works" />
  </g>
</svg>
